<svg xmlns="http://www.w3.org/2000/svg" viewBox="0 0 100 100"><defs><style>.cls-1{fill:transparent;}.cls-2{fill:none;stroke:#fff;stroke-miterlimit:10;stroke-width:3px;}.cls-3{fill:#fff;}</style></defs><g id="Ebene_1" data-name="Ebene 1"><rect class="cls-1" width="100" height="100"/></g><g id="Ebene_35" data-name="Ebene 35"><path class="cls-2" d="M85.83,15.32a15.21,15.21,0,1,1-22.39,8.84l-6.59-3.92a1.88,1.88,0,0,1-.66-2.57l2-3.39a1.86,1.86,0,0,1,2.54-.65l6.62,3.94A15.19,15.19,0,0,1,85.83,15.32Z"/><path class="cls-2" d="M70.63,40.88C84.06,32,86.51,16.59,86.51,16.59"/><path class="cls-3" d="M71.5,19.86a5.89,5.89,0,0,1,.58-.54l.13-.11c.11-.08-.08.07.07-.05l.37-.25a10.53,10.53,0,0,1,1-.58,9.39,9.39,0,0,1,6.22-.66c.94.2,1.34-1.24.39-1.45A11,11,0,0,0,73,17a8.37,8.37,0,0,0-2.6,1.84c-.64.72.42,1.78,1.06,1.06Z"/><path class="cls-3" d="M82.31,18.09h0a.5.5,0,0,0,.26-.13.48.48,0,0,0,.19-.21.49.49,0,0,0,.09-.28.61.61,0,0,0,0-.3L82.76,17a.7.7,0,0,0-.27-.27l-.18-.07a.65.65,0,0,0-.39,0h0a.58.58,0,0,0-.26.13.48.48,0,0,0-.19.21.49.49,0,0,0-.09.28.61.61,0,0,0,0,.3l.08.18a.7.7,0,0,0,.27.27l.18.07a.65.65,0,0,0,.39,0Z"/><path class="cls-3" d="M64,15.31a21.55,21.55,0,0,1,27.15-4.54A1.37,1.37,0,0,0,92.56,8.4a24.3,24.3,0,0,0-30.48,5c-1.16,1.33.78,3.29,1.94,2Z"/><rect class="cls-2" x="16.48" y="37.46" width="28.9" height="53.94" rx="4.82" transform="translate(24.58 135.62) rotate(-149.25)"/><path class="cls-2" d="M49.54,43.38l5-8.4a2.48,2.48,0,0,0-1-3.37l-4.62-2.75a2.46,2.46,0,0,0-3.38.74l-5,8.43"/><line class="cls-2" x1="35.19" y1="85.53" x2="10.35" y2="70.76"/><path class="cls-3" d="M43.53,30.66A32.56,32.56,0,0,0,11,36.46,32.79,32.79,0,0,0,4.4,44.34a1.38,1.38,0,0,0,2.38,1.38,29.83,29.83,0,0,1,36-12.41c1.66.62,2.38-2,.73-2.65Z"/><path class="cls-3" d="M33.9,39.15h0a1,1,0,0,0-.43.22,1.07,1.07,0,0,0-.32.35,1,1,0,0,0-.15.47.91.91,0,0,0,0,.49l.12.3a1.21,1.21,0,0,0,.45.45l.3.13a1.23,1.23,0,0,0,.66,0h0a.94.94,0,0,0,.43-.23.91.91,0,0,0,.32-.35,1,1,0,0,0,.15-.46.94.94,0,0,0,0-.5l-.13-.3a1.21,1.21,0,0,0-.45-.45l-.3-.12a1.23,1.23,0,0,0-.66,0Z"/><path class="cls-3" d="M31.47,42.55,17.62,65.83l-2,3.31a1.25,1.25,0,0,0,2.16,1.26L31.66,47.12l2-3.31a1.25,1.25,0,0,0-2.16-1.26Z"/></g></svg>