<svg xmlns="http://www.w3.org/2000/svg" viewBox="0 0 100 100"><defs><style>.cls-1{fill:transparent;}.cls-2{fill:none;stroke:#fff;stroke-miterlimit:10;stroke-width:3px;}</style></defs><g id="Ebene_1" data-name="Ebene 1"><rect class="cls-1" width="100" height="100"/></g><g id="Ebene_39" data-name="Ebene 39"><path class="cls-2" d="M78.7,51.71c-3.3.19-17.18-6.29-19.23-8.3,3.88-27.35,13.1-34.87,19.64-36.5a9.61,9.61,0,0,1,10.11,3.82C94.09,17.45,98.16,33,78.7,51.71Z"/><path class="cls-2" d="M72,64.77C66.15,58.35,60.57,55.94,53.72,55c-1.78.33-13.14,15.51-2.63,23.75S71.25,66.58,72,64.77Z"/><path class="cls-2" d="M9.49,55.35C12.07,57.42,27.12,60.24,30,59.8c12.8-24.47,9.69-36,5.33-41.1a9.63,9.63,0,0,0-10.45-2.79C17,18.53,4.61,28.75,9.49,55.35Z"/><path class="cls-2" d="M7.33,69.86c8.49-1.8,14.43-.51,20.52,2.74,1.25,1.31,1.64,20.27-11.71,20.83S6.88,71.76,7.33,69.86Z"/></g></svg>