<svg xmlns="http://www.w3.org/2000/svg" viewBox="0 0 100 100"><defs><style>.cls-1{fill:transparent;}.cls-2{fill:none;stroke:#fff;stroke-miterlimit:10;stroke-width:3px;}.cls-3{fill:#fff;}</style></defs><g id="Ebene_1" data-name="Ebene 1"><rect class="cls-1" width="100" height="100"/></g><g id="Ebene_40" data-name="Ebene 40"><path class="cls-2" d="M69.69,59.74V40.26C86,40.26,93.54,50,93.54,50S86,59.74,69.69,59.74Zm-27.75,0H69.69V40.26H41.94ZM36.7,60.85h5.24V39.15H36.7Z"/><path class="cls-3" d="M47.14,45.07H64.23a.63.63,0,0,0,0-1.25H47.14a.63.63,0,0,0,0,1.25Z"/><path class="cls-3" d="M84.36,47.47a33.43,33.43,0,0,0-9.16-3.18c-.79-.16-1.13,1.05-.34,1.2a32.39,32.39,0,0,1,8.87,3.06c.71.37,1.34-.71.63-1.08Z"/><path class="cls-3" d="M87.48,49.69v-.12a.42.42,0,0,0,0-.24.63.63,0,0,0-.13-.2.53.53,0,0,0-.2-.13.52.52,0,0,0-.24,0l-.17,0a.57.57,0,0,0-.27.16l-.1.13a.59.59,0,0,0-.09.31v.12a.53.53,0,0,0,.06.24.49.49,0,0,0,.13.2.46.46,0,0,0,.2.13.47.47,0,0,0,.24.05l.16,0a.61.61,0,0,0,.28-.16l.1-.13a.68.68,0,0,0,.08-.31Z"/><path class="cls-2" d="M48,26.65V7.18c16.35,0,23.85,9.73,23.85,9.73S64.3,26.65,48,26.65Zm-27.75,0H48V7.18H20.2ZM15,27.77H20.2V6.06H15Z"/><path class="cls-3" d="M25.4,12H42.49a.63.63,0,0,0,0-1.25H25.4a.63.63,0,0,0,0,1.25Z"/><path class="cls-3" d="M62.62,14.38a33.76,33.76,0,0,0-9.16-3.18c-.79-.15-1.13,1.05-.34,1.21A32.7,32.7,0,0,1,62,15.46c.71.37,1.35-.71.63-1.08Z"/><path class="cls-3" d="M65.74,16.6v-.11a.6.6,0,0,0-.38-.57.48.48,0,0,0-.24-.06l-.17,0a.63.63,0,0,0-.27.16l-.1.12a.73.73,0,0,0-.09.32v.11a.48.48,0,0,0,.06.24.57.57,0,0,0,.33.33.48.48,0,0,0,.24.06l.17,0a.63.63,0,0,0,.27-.16l.1-.12a.61.61,0,0,0,.08-.32Z"/><path class="cls-2" d="M52.44,92.8V73.33c16.35,0,23.85,9.74,23.85,9.74S68.79,92.8,52.44,92.8Zm-27.75,0H52.44V73.33H24.69Zm-5.24,1.12h5.24V72.21H19.45Z"/><path class="cls-3" d="M29.89,78.14H47a.63.63,0,0,0,0-1.25H29.89a.63.63,0,0,0,0,1.25Z"/><path class="cls-3" d="M67.11,80.53A33.76,33.76,0,0,0,58,77.35c-.79-.15-1.13,1.05-.34,1.21a32.7,32.7,0,0,1,8.87,3c.71.37,1.35-.71.63-1.08Z"/><path class="cls-3" d="M70.23,82.75v-.11a.66.66,0,0,0-.18-.44.44.44,0,0,0-.2-.13.48.48,0,0,0-.24-.06l-.17,0a.63.63,0,0,0-.27.16l-.1.12a.62.62,0,0,0-.09.32v.11A.48.48,0,0,0,69,83a.57.57,0,0,0,.33.33.48.48,0,0,0,.24.06l.17,0a.63.63,0,0,0,.27-.16l.1-.12a.61.61,0,0,0,.08-.32Z"/><path class="cls-3" d="M9.33,53.54H31.52a.63.63,0,0,0,0-1.25H9.33a.63.63,0,0,0,0,1.25Z"/><path class="cls-3" d="M7.71,21.84h2.4a.62.62,0,0,0,.62-.62.63.63,0,0,0-.62-.63H7.71a.63.63,0,1,0,0,1.25Z"/><path class="cls-3" d="M8.41,80.14h6a.63.63,0,0,0,0-1.25h-6a.63.63,0,0,0,0,1.25Z"/><path class="cls-3" d="M4.93,53.54h0a.52.52,0,0,0,.24,0,.57.57,0,0,0,.33-.33.52.52,0,0,0,0-.24l0-.17a.71.71,0,0,0-.16-.28l-.13-.09a.59.59,0,0,0-.31-.09h0a.53.53,0,0,0-.25.05.57.57,0,0,0-.33.33.53.53,0,0,0,0,.25l0,.16a.71.71,0,0,0,.16.28l.13.09a.59.59,0,0,0,.32.09Z"/><path class="cls-3" d="M4.93,78.89h0a.43.43,0,0,0-.25,0,.63.63,0,0,0-.2.13.53.53,0,0,0-.13.2.52.52,0,0,0,0,.24l0,.17a.67.67,0,0,0,.16.27l.13.1a.59.59,0,0,0,.32.09h0a.53.53,0,0,0,.24-.06.49.49,0,0,0,.2-.13.46.46,0,0,0,.13-.2.47.47,0,0,0,0-.24l0-.16a.71.71,0,0,0-.16-.28L5.24,79a.68.68,0,0,0-.31-.08Z"/><path class="cls-3" d="M11.93,47.07H23a.63.63,0,0,0,0-1.25H11.93a.63.63,0,0,0,0,1.25Z"/><path class="cls-3" d="M4.93,15.54h5.18a.63.63,0,0,0,0-1.25H4.93a.63.63,0,0,0,0,1.25Z"/><path class="cls-3" d="M6.23,86.69H11a.63.63,0,0,0,0-1.25H6.23a.63.63,0,0,0,0,1.25Z"/></g></svg>