<svg xmlns="http://www.w3.org/2000/svg" viewBox="0 0 147.45 108"><defs><style>.b98987db-a4bf-486f-b9d4-2e129f5e2d0e{fill:none;stroke:#ff4800;stroke-miterlimit:10;stroke-width:2px;}</style></defs><g id="a230e5e5-394d-46f7-95ef-68fe312efa7a" data-name="Ebene 2"><g id="fcfbaa57-70a2-43b7-aeb2-ad4c7db86f5c" data-name="Ebene 48"><circle class="b98987db-a4bf-486f-b9d4-2e129f5e2d0e" cx="17.55" cy="24.15" r="5"/><circle class="b98987db-a4bf-486f-b9d4-2e129f5e2d0e" cx="38.03" cy="60" r="5"/><line class="b98987db-a4bf-486f-b9d4-2e129f5e2d0e" x1="55.55" y1="41.15" x2="41.55" y2="56.15"/><circle class="b98987db-a4bf-486f-b9d4-2e129f5e2d0e" cx="59.51" cy="37.15" r="5"/><line class="b98987db-a4bf-486f-b9d4-2e129f5e2d0e" x1="77.55" y1="52.15" x2="62.55" y2="40.15"/><line class="b98987db-a4bf-486f-b9d4-2e129f5e2d0e" x1="34.5" y1="15" x2="68.5" y2="15"/><line class="b98987db-a4bf-486f-b9d4-2e129f5e2d0e" x1="34.5" y1="21" x2="68.5" y2="21"/><line class="b98987db-a4bf-486f-b9d4-2e129f5e2d0e" x1="72.5" y1="15" x2="82.09" y2="15"/><line class="b98987db-a4bf-486f-b9d4-2e129f5e2d0e" x1="72.29" y1="21" x2="76.5" y2="21"/><rect class="b98987db-a4bf-486f-b9d4-2e129f5e2d0e" x="51" y="87" width="13" height="13.15"/><path class="b98987db-a4bf-486f-b9d4-2e129f5e2d0e" d="M42.12,100.58H73.57A6.42,6.42,0,0,1,80,107v0a0,0,0,0,1,0,0H36a0,0,0,0,1,0,0v-.3A6.12,6.12,0,0,1,42.12,100.58Z"/><path class="b98987db-a4bf-486f-b9d4-2e129f5e2d0e" d="M116.84,20a10.27,10.27,0,0,1,10.24,10.31"/><path class="b98987db-a4bf-486f-b9d4-2e129f5e2d0e" d="M131.82,57.32l-7.44,2.94-.06-.16-2.94-7.43a22.38,22.38,0,0,0,7.43-3l2.95,7.47Z"/><path class="b98987db-a4bf-486f-b9d4-2e129f5e2d0e" d="M94.18,30.32a22.81,22.81,0,0,0,10.3,19.12c.49.33,1,.63,1.52.92a22.91,22.91,0,0,0,6,2.25V80.19A5.81,5.81,0,0,1,106.19,86H6.81A5.81,5.81,0,0,1,1,80.19V6.81A5.81,5.81,0,0,1,6.81,1h99.38A5.81,5.81,0,0,1,112,6.81V8a22.37,22.37,0,0,0-6.61,2.61c-.31.18-.61.36-.91.56A22.81,22.81,0,0,0,94.18,30.32Z"/><path class="b98987db-a4bf-486f-b9d4-2e129f5e2d0e" d="M129.56,57.6h11.26a.4.4,0,0,1,.4.4V90.89a4.17,4.17,0,0,1-4.17,4.17h-3.3a4.59,4.59,0,0,1-4.59-4.59V58a.4.4,0,0,1,.4-.4Z" transform="translate(-18.6 55.05) rotate(-21.57)"/><path class="b98987db-a4bf-486f-b9d4-2e129f5e2d0e" d="M116.84,7.5A22.71,22.71,0,0,0,112,8a22.37,22.37,0,0,0-6.61,2.61c-.31.18-.61.36-.91.56a22.89,22.89,0,0,0,0,38.25c.49.33,1,.63,1.52.92a22.46,22.46,0,0,0,10.84,2.77,22.62,22.62,0,0,0,4.54-.46,22.38,22.38,0,0,0,7.43-3,22.85,22.85,0,0,0-12-42.19Zm0,38.59A15.75,15.75,0,0,1,104.48,40a15.81,15.81,0,0,1,0-19.36,15.68,15.68,0,0,1,12.36-6.09,15.77,15.77,0,0,1,0,31.54Z"/><line class="b98987db-a4bf-486f-b9d4-2e129f5e2d0e" x1="35.55" y1="55.15" x2="20.55" y2="29.15"/><circle class="b98987db-a4bf-486f-b9d4-2e129f5e2d0e" cx="81" cy="55" r="5"/><line class="b98987db-a4bf-486f-b9d4-2e129f5e2d0e" x1="2.05" y1="75.15" x2="113.05" y2="75.15"/><line class="b98987db-a4bf-486f-b9d4-2e129f5e2d0e" x1="97.55" y1="42.15" x2="84.55" y2="52.15"/><line class="b98987db-a4bf-486f-b9d4-2e129f5e2d0e" x1="20.34" y1="80.83" x2="24.54" y2="80.83"/><line class="b98987db-a4bf-486f-b9d4-2e129f5e2d0e" x1="8.64" y1="80.83" x2="18.23" y2="80.83"/></g></g></svg>