<svg xmlns="http://www.w3.org/2000/svg" viewBox="0 0 159.07 120.32"><defs><style>.ae125e74-4779-4d14-be0d-437e47b54daa{fill:none;stroke:#ff4800;stroke-miterlimit:10;stroke-width:2px;}.a568c911-d9a9-4d8a-971b-68fec6d4f44d{fill:#ff4800;}.ad08972a-b5d7-4073-a9bf-106bf0d59145{fill:#fbfbfb;}</style></defs><g id="e89bd4a2-9da5-431f-8307-cfa9a1beea1a" data-name="Ebene 2"><g id="a26b2800-a03a-4518-90e8-5baa6da31a9b" data-name="Ebene 8"><path class="ae125e74-4779-4d14-be0d-437e47b54daa" d="M92.51,24.34H61.07a3.5,3.5,0,0,0-3.5,3.5v70a3.5,3.5,0,0,0,3.5,3.5h93.5a3.5,3.5,0,0,0,3.5-3.5v-70a3.49,3.49,0,0,0-3.5-3.5H136.7"/><rect class="ae125e74-4779-4d14-be0d-437e47b54daa" x="101.48" y="101.3" width="11.71" height="11.84"/><path class="ae125e74-4779-4d14-be0d-437e47b54daa" d="M92.91,113.53h29.52a5.18,5.18,0,0,1,5.18,5.18v.61a0,0,0,0,1,0,0H88a0,0,0,0,1,0,0v-.85A4.94,4.94,0,0,1,92.91,113.53Z"/><line class="ae125e74-4779-4d14-be0d-437e47b54daa" x1="58.16" y1="90.75" x2="158.14" y2="90.75"/><line class="ae125e74-4779-4d14-be0d-437e47b54daa" x1="74.63" y1="95.87" x2="78.42" y2="95.87"/><line class="ae125e74-4779-4d14-be0d-437e47b54daa" x1="64.1" y1="95.87" x2="72.74" y2="95.87"/><path class="a568c911-d9a9-4d8a-971b-68fec6d4f44d" d="M111.93,58.46V51.65c0-2.75.15-5.45-1.23-8-3.9-7.18-15.84-7.06-19.5.31-1.07,2.16-1.07,4.37-1.07,6.7V65.85a10.31,10.31,0,0,0,3.81,8.21,12.42,12.42,0,0,0,11.2,1.65,10.27,10.27,0,0,0,6.79-9.94l-.9.9a40.91,40.91,0,0,0,7,0l-.9-.9a18.08,18.08,0,0,1-.93,6.61,14.17,14.17,0,0,1-12.87,9.07c-1.41,0-2.83,0-4.25,0A14.31,14.31,0,0,1,86,72.69c-1.21-2.93-1.06-6-1.06-9.08V52.12c0-2.83-.24-5.82.53-8.57A14.27,14.27,0,0,1,97.53,33.33a46.76,46.76,0,0,1,5.16-.08,14.59,14.59,0,0,1,7.42,1.92c4.79,2.8,7,7.77,7,13.17V58.46l.66-.87a13.09,13.09,0,0,1-6.52,0,.9.9,0,0,0-.48,1.74,15,15,0,0,0,7.48,0,.93.93,0,0,0,.66-.87v-10c0-4.91-1.49-9.51-5.21-12.89A16,16,0,0,0,106,31.73a35.42,35.42,0,0,0-6.35-.28,16.33,16.33,0,0,0-13.86,7.19c-2.27,3.43-2.62,7.19-2.62,11.16V62c0,3.21-.27,6.61.63,9.72a16.09,16.09,0,0,0,12,11.15,31.23,31.23,0,0,0,6.41.35,17.54,17.54,0,0,0,7.19-1.34,16.07,16.07,0,0,0,9.51-13.39c.08-.92.05-1.83.05-2.75a.91.91,0,0,0-.9-.9,40.91,40.91,0,0,1-7,0,.92.92,0,0,0-.9.9,8.42,8.42,0,0,1-5.79,8.31,11,11,0,0,1-8.78-1,8.51,8.51,0,0,1-3.63-7.26V60c0-3.9-.09-7.82,0-11.72a8.32,8.32,0,0,1,7.79-8.06c3.47-.19,6.91.54,9,3.61,1.63,2.42,1.42,5.13,1.42,7.9v6.69A.9.9,0,0,0,111.93,58.46Z"/><path class="a568c911-d9a9-4d8a-971b-68fec6d4f44d" d="M130.63,30.9V49.19A19.46,19.46,0,0,1,130,55a14.28,14.28,0,0,1-7.12,8.45c-2.86,1.47-5.84,1.53-9,1.53a15.9,15.9,0,0,1-9.17-2.36,14.24,14.24,0,0,1-6.07-9.1,38,38,0,0,1-.26-7.23V39.74l-.66.87a13.09,13.09,0,0,1,6.52,0l-.66-.87v6.45c0,2.5-.2,5,.79,7.4,3.15,7.45,14.5,8.39,19.15,1.93a11.54,11.54,0,0,0,1.86-7.09V33.2a11.38,11.38,0,0,0-2.19-7.46c-2.73-3.41-7.32-4.39-11.47-3.6a10.21,10.21,0,0,0-8.14,10.29l.9-.9a40.91,40.91,0,0,0-7,0l.9.9c0-3.31.44-6.4,2.29-9.24a14.21,14.21,0,0,1,8.27-6,27.89,27.89,0,0,1,7.13-.46,14.64,14.64,0,0,1,8.7,2.71,14.3,14.3,0,0,1,5.81,11.44.9.9,0,0,0,1.8,0A16.12,16.12,0,0,0,117.24,15a35.7,35.7,0,0,0-7.31.21A15.87,15.87,0,0,0,100.12,21c-2.68,3.37-3.49,7.27-3.49,11.48a.91.91,0,0,0,.9.9,40.91,40.91,0,0,1,7,0,.91.91,0,0,0,.9-.9,8.4,8.4,0,0,1,7.11-8.6c3.51-.49,7.31.29,9.5,3.3a9.88,9.88,0,0,1,1.59,6.2V47.07a19.26,19.26,0,0,1-.25,4.68,8.4,8.4,0,0,1-8.31,6.2,11.22,11.22,0,0,1-4.66-.67,8.37,8.37,0,0,1-4-3.67c-1.26-2.32-1-5-1-7.54V39.74a.93.93,0,0,0-.66-.87,15,15,0,0,0-7.48,0,.93.93,0,0,0-.66.87v6c0,2.13-.13,4.32.07,6.44a16.1,16.1,0,0,0,15.49,14.54,32,32,0,0,0,7.77-.37A16,16,0,0,0,132.43,50.7c0-1.69,0-3.37,0-5.06V30.9A.9.9,0,0,0,130.63,30.9Z"/><path class="a568c911-d9a9-4d8a-971b-68fec6d4f44d" d="M76.53,45.56v23a.75.75,0,0,0,1.5,0v-23a.75.75,0,0,0-1.5,0Z"/><path class="a568c911-d9a9-4d8a-971b-68fec6d4f44d" d="M70.53,51.06v14a.75.75,0,0,0,1.5,0v-14a.75.75,0,0,0-1.5,0Z"/><path class="a568c911-d9a9-4d8a-971b-68fec6d4f44d" d="M139,68.06V45a.75.75,0,0,0-1.5,0V68.06a.75.75,0,0,0,1.5,0Z"/><path class="a568c911-d9a9-4d8a-971b-68fec6d4f44d" d="M145,62.5v-14a.75.75,0,0,0-1.5,0v14a.75.75,0,0,0,1.5,0Z"/></g><g id="ab267f33-5d1d-49f5-b3b1-5ae83c09eaed" data-name="Ebene 2"><circle class="ae125e74-4779-4d14-be0d-437e47b54daa" cx="23.5" cy="23.5" r="22.5"/></g><g id="bec24c77-db7c-44f9-ab06-61f79827aa52" data-name="Ebene 5"><path class="ad08972a-b5d7-4073-a9bf-106bf0d59145" d="M25.51,13V34.79H23.13V15.09H20.75V13Z"/></g></g></svg>