<svg xmlns="http://www.w3.org/2000/svg" viewBox="0 0 102.5 105.44"><defs><style>.eb7151e3-d8fe-431d-a28d-c1590f8f5a1f{fill:none;stroke:#ff4800;stroke-miterlimit:10;stroke-width:2px;}.acff4c1a-8d83-4bb1-b99b-9c0993a9ba58{fill:#ff4800;}</style></defs><g id="f416c09c-4be0-4271-ad0d-2fd84aaaa3f9" data-name="Ebene 2"><g id="bb0e6241-7a8a-496a-80e3-b4ac7b2234f9" data-name="Ebene 8"><path class="eb7151e3-d8fe-431d-a28d-c1590f8f5a1f" d="M35.93,9.45H4.5A3.5,3.5,0,0,0,1,13V83a3.5,3.5,0,0,0,3.5,3.5H98a3.5,3.5,0,0,0,3.5-3.5V13A3.5,3.5,0,0,0,98,9.45H80.13"/><rect class="eb7151e3-d8fe-431d-a28d-c1590f8f5a1f" x="44.9" y="86.42" width="11.71" height="11.84"/><path class="eb7151e3-d8fe-431d-a28d-c1590f8f5a1f" d="M36.33,98.65H65.85A5.18,5.18,0,0,1,71,103.83v.61a0,0,0,0,1,0,0H31.39a0,0,0,0,1,0,0v-.85A4.94,4.94,0,0,1,36.33,98.65Z"/><line class="eb7151e3-d8fe-431d-a28d-c1590f8f5a1f" x1="1.59" y1="75.87" x2="101.57" y2="75.87"/><line class="eb7151e3-d8fe-431d-a28d-c1590f8f5a1f" x1="18.06" y1="80.99" x2="21.85" y2="80.99"/><line class="eb7151e3-d8fe-431d-a28d-c1590f8f5a1f" x1="7.53" y1="80.99" x2="16.17" y2="80.99"/><path class="acff4c1a-8d83-4bb1-b99b-9c0993a9ba58" d="M55.36,43.58V36.77c0-2.76.14-5.45-1.23-8-3.91-7.19-15.84-7.07-19.5.31-1.07,2.15-1.07,4.37-1.07,6.7v8.51c0,2.21,0,4.43,0,6.64a10.32,10.32,0,0,0,3.8,8.22,12.47,12.47,0,0,0,11.21,1.65,10.28,10.28,0,0,0,6.79-9.94l-.9.9a40.91,40.91,0,0,0,7,0l-.9-.9a17.9,17.9,0,0,1-.94,6.61,14.14,14.14,0,0,1-12.86,9.06c-1.41,0-2.84,0-4.25,0a14.31,14.31,0,0,1-13.09-8.76c-1.21-2.94-1.06-6-1.06-9.08V37.24c0-2.83-.24-5.82.53-8.57A14.27,14.27,0,0,1,41,18.45a46.73,46.73,0,0,1,5.16-.08,14.62,14.62,0,0,1,7.42,1.92c4.79,2.8,7,7.77,7,13.17V43.58l.66-.87a13.09,13.09,0,0,1-6.52,0,.9.9,0,0,0-.48,1.74,15,15,0,0,0,7.48,0,.93.93,0,0,0,.66-.87v-10c0-4.91-1.49-9.51-5.22-12.89a16,16,0,0,0-7.75-3.87A35.53,35.53,0,0,0,43,16.57a16.3,16.3,0,0,0-13.85,7.19c-2.27,3.43-2.62,7.19-2.62,11.16V47.15c0,3.21-.28,6.61.63,9.72A16.09,16.09,0,0,0,39.2,68a31.19,31.19,0,0,0,6.41.35A17.74,17.74,0,0,0,52.8,67a16.09,16.09,0,0,0,9.51-13.4c.07-.91,0-1.83,0-2.74a.9.9,0,0,0-.9-.9,40.91,40.91,0,0,1-7,0,.9.9,0,0,0-.9.9,8.41,8.41,0,0,1-5.79,8.3,11,11,0,0,1-8.79-1,8.52,8.52,0,0,1-3.62-7.27V45.16c0-3.9-.1-7.82,0-11.72a8.33,8.33,0,0,1,7.79-8.06c3.48-.19,6.92.54,9,3.61,1.63,2.42,1.42,5.13,1.42,7.9v6.69A.9.9,0,0,0,55.36,43.58Z"/><path class="acff4c1a-8d83-4bb1-b99b-9c0993a9ba58" d="M74.06,16V34.3a19.49,19.49,0,0,1-.62,5.79,14.29,14.29,0,0,1-7.13,8.45c-2.85,1.46-5.83,1.53-9,1.53a16,16,0,0,1-9.18-2.36,14.27,14.27,0,0,1-6.07-9.1,38.05,38.05,0,0,1-.25-7.24V24.86l-.66.87a13.09,13.09,0,0,1,6.52,0l-.66-.87v6.45c0,2.5-.2,5,.79,7.4C51,46.16,62.34,47.1,67,40.64a11.62,11.62,0,0,0,1.86-7.09V18.32a11.31,11.31,0,0,0-2.2-7.46c-2.72-3.41-7.32-4.39-11.47-3.61a10.23,10.23,0,0,0-8.13,10.3l.9-.9a40.91,40.91,0,0,0-7,0l.9.9c0-3.32.44-6.4,2.28-9.24a14.24,14.24,0,0,1,8.27-6,27.55,27.55,0,0,1,7.14-.46,14.59,14.59,0,0,1,8.7,2.71A14.33,14.33,0,0,1,74.06,16a.9.9,0,0,0,1.8,0A16.12,16.12,0,0,0,60.66.09a35.62,35.62,0,0,0-7.3.2,15.93,15.93,0,0,0-9.81,5.78c-2.69,3.37-3.49,7.26-3.49,11.48a.91.91,0,0,0,.9.9,40.91,40.91,0,0,1,7,0,.91.91,0,0,0,.9-.9A8.4,8.4,0,0,1,56,9c3.51-.49,7.3.29,9.5,3.29a9.9,9.9,0,0,1,1.59,6.21V32.19a18.67,18.67,0,0,1-.26,4.67,8.4,8.4,0,0,1-8.3,6.21,11.2,11.2,0,0,1-4.66-.68,8.34,8.34,0,0,1-4-3.67c-1.26-2.31-1-5-1-7.53V24.86A.91.91,0,0,0,48.2,24a15,15,0,0,0-7.48,0,.91.91,0,0,0-.66.87v6c0,2.13-.13,4.31.06,6.44a16.11,16.11,0,0,0,15.5,14.54,32.56,32.56,0,0,0,7.77-.37A16,16,0,0,0,75.86,35.82c0-1.69,0-3.38,0-5.06V16A.9.9,0,0,0,74.06,16Z"/><path class="acff4c1a-8d83-4bb1-b99b-9c0993a9ba58" d="M20,30.67v23a.75.75,0,0,0,1.5,0v-23a.75.75,0,0,0-1.5,0Z"/><path class="acff4c1a-8d83-4bb1-b99b-9c0993a9ba58" d="M14,36.17v14a.75.75,0,0,0,1.5,0v-14a.75.75,0,0,0-1.5,0Z"/><path class="acff4c1a-8d83-4bb1-b99b-9c0993a9ba58" d="M82.46,53.17V30.11a.75.75,0,0,0-1.5,0V53.17a.75.75,0,0,0,1.5,0Z"/><path class="acff4c1a-8d83-4bb1-b99b-9c0993a9ba58" d="M88.46,47.61v-14a.75.75,0,0,0-1.5,0v14a.75.75,0,0,0,1.5,0Z"/></g></g></svg>