<?xml version="1.0" encoding="utf-8"?>
<!-- Generator: Adobe Illustrator 23.1.1, SVG Export Plug-In . SVG Version: 6.00 Build 0)  -->
<svg version="1.1" xmlns="http://www.w3.org/2000/svg" xmlns:xlink="http://www.w3.org/1999/xlink" x="0px" y="0px"
	 viewBox="0 0 245 240" style="enable-background:new 0 0 245 240;" xml:space="preserve">
<style type="text/css">
	.st0{fill:#FFFFFF;stroke:#000000;stroke-miterlimit:10;}
	.st1{fill:#7289da;}
</style>
<g id="Ebene_2">
	<rect x="38" y="38" class="st0" width="173" height="135"/>
</g>
<g id="Layer_1">
	<g>
		<path class="st1" d="M203.1,1.7H43.4C30,1.7,19,12.7,19,26.3v161.1c0,13.6,11,24.5,24.4,24.5h135.1l-6.3-22l15.3,14.2l14.4,13.3
			l25.6,22.6V26.3C227.5,12.7,216.5,1.7,203.1,1.7z M157.1,157.3c0,0-4.3-5.1-7.9-9.7c15.6-4.4,21.6-14.2,21.6-14.2
			c-4.9,3.2-9.5,5.5-13.7,7c-6,2.5-11.7,4.2-17.3,5.1c-11.4,2.1-21.9,1.5-30.9-0.1c-6.8-1.3-12.6-3.2-17.5-5.1
			c-2.7-1.1-5.7-2.4-8.7-4.1c-0.4-0.2-0.7-0.4-1.1-0.6c-0.2-0.1-0.4-0.2-0.5-0.4c-2.1-1.2-3.3-2-3.3-2s5.7,9.5,20.8,14.1
			c-3.6,4.5-8,9.9-8,9.9c-26.3-0.8-36.3-18.1-36.3-18.1c0-38.4,17.2-69.5,17.2-69.5C88.7,56.9,105,57.2,105,57.2l1.2,1.4
			c-21.4,6.2-31.3,15.6-31.3,15.6s2.6-1.4,7-3.5c12.7-5.6,22.9-7.1,27-7.5c0.7-0.1,1.3-0.2,2-0.2c7.3-1,15.5-1.2,24.1-0.2
			c11.3,1.3,23.5,4.6,35.9,11.4c0,0-9.4-8.9-29.7-15.1l1.7-1.9c0,0,16.3-0.4,33.5,12.5c0,0,17.2,31.1,17.2,69.5
			C193.5,139.2,183.4,156.5,157.1,157.3z"/>
		<path class="st1" d="M101.7,101.7c-6.8,0-12.2,6-12.2,13.2s5.5,13.2,12.2,13.2c6.8,0,12.2-6,12.2-13.2
			C114,107.6,108.5,101.7,101.7,101.7z M145.2,101.7c-6.8,0-12.2,6-12.2,13.2s5.5,13.2,12.2,13.2c6.8,0,12.2-6,12.2-13.2
			S152,101.7,145.2,101.7z"/>
	</g>
</g>
</svg>
