<svg id="svg" xmlns="http://www.w3.org/2000/svg" viewBox="0 0 399.97 81.65"><defs><style>.cls-1{fill:orange;fill-rule:evenodd;}</style></defs><title>dota-logo</title><g id="svgg"><path id="path0" class="cls-1" d="M33.79.34c-.25.07-.46.11-.46.07a4.8,4.8,0,0,0-.62.59,2.15,2.15,0,0,1-1.42.75c-.43.07-.79.19-.79.27s-.18.15-.4.15a.44.44,0,0,0-.48.33c-.14.53-7.29.43-7.29-.11a.2.2,0,0,0-.19-.22,1,1,0,0,1-.49-.27c-.26-.24-.45-.25-1.39-.08a2.61,2.61,0,0,1-1.42,0,3.73,3.73,0,0,0-2.17,0c-.22.12-.35.12-.42,0a57.46,57.46,0,0,0-7.31-.15C.79,1.7,1,1.67,1,3a1.62,1.62,0,0,1-.1.71,4.64,4.64,0,0,0,.15,3c.44.84.67,5.66.28,5.89a2.23,2.23,0,0,0-.16,1.23c0,2.1,0,3-.18,2.36-.1-.47-.12-.35-.12.58a5.52,5.52,0,0,1-.18,1.64,1.08,1.08,0,0,0-.12.6,2.34,2.34,0,0,1-.16.92c-.16.54-.19.87-.08,1a1.39,1.39,0,0,1,0,1,1.62,1.62,0,0,0,0,.91,4.82,4.82,0,0,1,.2,1.47A7.88,7.88,0,0,0,.79,26a12.57,12.57,0,0,1,1,4.18c.07,1.09.16,1.61.25,1.4s.13,0,.13.55,0,.85-.13.8-.21.54-.27,1.31c-.12,1.4,0,2.59.22,2.59.07,0,.14.15.15.34a3.63,3.63,0,0,0,.93,1.52c.7.48,0,3.52-.77,3.26a.74.74,0,0,0-.52.25,1.14,1.14,0,0,1-.52.3c-.31,0-.41.61-.37,2.42l0,1.66L1,44.92l.1-1.67.07,2.58c.08,3.35.08,3.41.2,3.6A3.11,3.11,0,0,1,1.26,51c-.14.23,1.12,1.7,1.62,1.89.34.13.45,5.79.11,5.79-.11,0-.17.29-.15.71,0,.76-.13,1.34-.34,1.2s-.1.06,0,.23-.08.43-.44.68a1,1,0,0,0-.51.84.86.86,0,0,1-.17.59,4.32,4.32,0,0,0-.18,1.55c0,1-.06,1.31-.15,1s-.13,0-.13.83c0,1,0,1.12.12.59s.14-.42.24.91c.26,3.55.11,8.46-.28,8.7-.15.1-.15.13,0,.13s.21.16.21.34a.92.92,0,0,0,.32.61c.18.16.29.34.25.4s.21.13.55.13c1.33,0,2.87.23,2.77.4s.32.13,1.21,0c.72-.07,2.78-.15,4.56-.18s3.68-.09,4.2-.15,1,0,1.06.09.44.13,1,.07c1.77-.21,2.51-.21,3.05,0s1.56.3,1.56.06.11-.17.26-.17.21.08.15.17.47.21.69,0,7.23-.15,7.23.19c0,.08.23.15.5.15a1.76,1.76,0,0,1,.81.2c.26.16.39.11.79-.25s.77-.57.63-.2c-.06.14,0,.25.09.25s.17.06.15.13a2,2,0,0,0,.63,1.21l.8.85c.23.25.37.49.31.55s.29.1.76.1c.77,0,.86,0,.86-.35s.08-.33.26-.26.22,0,.15-.07c-.2-.33.45-.82,1.08-.82.82,0,1.36.17,1.24.37s0,.14.25.08.4,0,.45.06a.53.53,0,0,0,.4.15.46.46,0,0,1,.4.25c.11.29.77.35.77.07,0-.1.11-.14.25-.09s.23,0,.21,0,0-.14.13-.16.16.05.16.16.22.24.49.27.42.09.26.19.1.14.67.13.81,0,.69-.09.07-.28.47-.57.79-.46.94-.4.21,0,.16-.06c-.22-.34.45-.42,3.12-.37,1.93,0,2.79,0,2.79-.13s.26-.18.58-.18.58.06.58.13a8.2,8.2,0,0,0,2,.14,7.16,7.16,0,0,0,1.92-.1,9.88,9.88,0,0,1,3.13-.33c.52,0,.95-.08.95-.17a.19.19,0,0,1,.19-.17.73.73,0,0,0,.42-.29c.15-.2.26-.23.35-.1a1.35,1.35,0,0,0,.67.3c.3.07.54.19.54.27a4.33,4.33,0,0,0,1.64.16c1.78,0,3.22.14,3.12.31a7.59,7.59,0,0,0,1.84.12A7.48,7.48,0,0,0,71.5,80a1.89,1.89,0,0,1,.86-.23c.88-.13,1.31-.38,1.3-.78a1,1,0,0,0-.76-.81c-.26,0-.25,0,.08-.17a9.58,9.58,0,0,1,3.65,0,1.75,1.75,0,0,0,.87.28c1.22.14,3.31,1.08,3,1.35-.07.07.09.1.36.07l.48-.06,0-1.73c0-1.27,0-1.77.18-1.87s.18-.17,0-.34-.27-1.59,0-1.68.17-.13,0-.32c-.3-.35-.31-18,0-18.47.17-.26.17-.37,0-.53s-.21-1.24-.21-4.06c0-4.43,0-4.53-1.12-4.36-.48.08-.73,0-.87-.12s-.12-.25.19-.29a.86.86,0,0,0,.56-.43c.11-.21.24-.33.3-.27s.11-.09.11-.33-.07-.45-.17-.45-.16-.11-.16-.26.06-.22.14-.17a19.06,19.06,0,0,0,.12-3.24,22.53,22.53,0,0,0-.14-3.33c-.07,0-.12-.28-.12-.62a3,3,0,0,0-.25-1.1c-.14-.26-.21-.55-.15-.64s-.06-.2-.25-.25-.31-.15-.27-.22,0-.18-.18-.23-.21-.18-.15-.28-.09-.32-.32-.51-.39-.41-.34-.49,0-.16-.17-.16-.26-.07-.26-.16A.18.18,0,0,1,78,32.5c.09,0,.17-.13.17-.29a3,3,0,0,1,1.14-1.38c.18,0,.19-1.23,0-1.34s0-.66.29-.66a4.23,4.23,0,0,0,1.49-1.11c.11-.11.23-.18.27-.14s0-2.08,0-4.7c0-3.69,0-4.79.16-4.89s.16-.18,0-.39-.2-1-.15-3.67a19.89,19.89,0,0,0-.07-3.32c-.07,0-.12-.3-.12-.77S81.1,9,81,9s-.14-.23-.14-.5S81,8,81,8s.14-.27.14-.59.06-.55.16-.49.17-.45.17-1.43c0-1.71,0-1.77-1.46-2.61-.39-.22-.66-.48-.61-.57s0-.14,0-.13c-.34.06-.74,0-.67-.14s-1.42-.24-3.8-.29c-2-.05-2.28-.08-2.18-.23s0-.12-.22-.07-.36,0-.41-.08-.29-.12-.52-.08-.38.15-.33.23,0,.15-.21.15-.41.23-.55.53c-.34.72-.61.76-.75.12s-.57-1.15-1-1.15A.64.64,0,0,1,68.25,1,7.32,7.32,0,0,0,66.12.85c-1.12,0-2.45,0-3-.08s-1.41-.1-2-.11c-.76,0-1-.06-.67-.15a15.11,15.11,0,0,0-3-.11,22,22,0,0,0-3.36.14c0,.07,0,.13-.19.13s-.3.19-.36.5a1.22,1.22,0,0,1-.25.59.92.92,0,0,0-.14.59c0,.29-.07.46-.17.4s-.17,0-.17.24-.1.34-.92.34c-.58,0-.89.07-.83.17s-.19.17-.65.17-.76-.07-.76-.25-.07-.25-.16-.25-.2-.23-.26-.5-.22-.5-.36-.5-.2-.08-.14-.17-.38-.17-1.2-.19-1.17-.05-1-.09.25-.15.2-.23,0-.16.17-.16c.3,0,.35-.42.07-.59-.13-.08-.12-.15,0-.24s.74-.15-6.68-.22C37,.24,34,.27,33.79.34m-18,14.15c0,.08.38.11.75.06.64-.09.76,0,.69.49,0,.07.07.13.19.13a.93.93,0,0,1,.5.33.92.92,0,0,0,.54.33c.13,0,.25.08.25.17s.11.17.25.17a1.28,1.28,0,0,1,.67.41c.23.22.41.36.41.3s.09,0,.21.16a1,1,0,0,0,.52.32.83.83,0,0,1,.5.39.88.88,0,0,0,.91.58c.21,0,.34.07.28.16s.08.21.29.27a1.5,1.5,0,0,1,.46.22,1.68,1.68,0,0,0,.41.29.84.84,0,0,1,.39.56.6.6,0,0,0,.38.46.44.44,0,0,1,.32.38c0,.17.21.4.5.52s.5.27.5.33.3.15.68.21a2.49,2.49,0,0,1,1.21.61,1.91,1.91,0,0,0,.74.49c.12,0,.18.08.12.16s.27.21.75.27a1.69,1.69,0,0,1,1.24.59,1.37,1.37,0,0,0,.58.48.18.18,0,0,1,.18.17c0,.09.1.17.24.17a.46.46,0,0,1,.37.22,3.21,3.21,0,0,0,.8.56c.37.19.65.42.63.52s.17.21.41.28a1.94,1.94,0,0,1,.82.51,1.87,1.87,0,0,0,.89.51c.27.06.46.16.42.23s.11.18.34.24c.5.12,1.09.6,1,.79s0,.14.09.14a1,1,0,0,1,.44.28,1.22,1.22,0,0,0,.59.33,2.47,2.47,0,0,1,.84.55,2,2,0,0,0,.78.5c.12,0,.17.08.12.17s.09.2.32.26.43.18.43.26,0,.14.12.12c.24-.05.71.23.62.37s.18.19.5.25.59.18.59.26.1.15.22.15a1.74,1.74,0,0,1,.71.58,1.8,1.8,0,0,0,.69.58.19.19,0,0,1,.21.17c0,.09.14.17.3.17a1.33,1.33,0,0,1,.7.49c.22.27.46.45.54.4s.13,0,.13.1.11.17.25.17.25.07.25.16.22.2.49.26a.89.89,0,0,1,.57.34.38.38,0,0,0,.28.24.85.85,0,0,1,.43.25,1,1,0,0,0,.58.25c.19,0,.29.08.23.17s.05.17.24.17.35.08.35.19,0,.15.1.09.37.2.69.56a2.9,2.9,0,0,0,.74.66,5.67,5.67,0,0,1,1.39.91,5.79,5.79,0,0,0,.83.5,4.68,4.68,0,0,1,1,.71,1.26,1.26,0,0,0,.52.38c.15,0,.33.13,1.15.81a1.81,1.81,0,0,0,.54.26c.2.06.36.19.36.27s.12.16.26.16a.38.38,0,0,1,.34.23.78.78,0,0,0,.5.34c.22,0,.4.17.4.26a.19.19,0,0,0,.21.17,1.75,1.75,0,0,1,.68.48,2.35,2.35,0,0,0,1.07.6c.39.07.53.16.39.24s.18.4.44.36c.42-.07,1.06,1,.79,1.32-.42.46-.13.66,1,.66.49,0,.76.07.7.17s.19.17.64.17c.92,0,1.28.12,1.28.44,0,.13.07.2.16.14s.17,0,.17.16.65.61.9.46c.08,0,.1,0,0,.1s0,.2.15.2a.42.42,0,0,1,.36.25c0,.13.16.21.23.16s.33.08.55.29c.64.59.92.8,1.07.8a1.55,1.55,0,0,1,.55.49c.23.27.5.5.61.5a1,1,0,0,1,.48.3,1.05,1.05,0,0,0,.47.29,7,7,0,0,1-.06,3.08,2.41,2.41,0,0,0-.27,1c-.06.48-.17.84-.24.79s-.16.27-.21.69a2,2,0,0,1-.24.88,2,2,0,0,0-.27.92,2.07,2.07,0,0,1-.27.93,1.63,1.63,0,0,0-.27.8c-.06.38-.17.7-.24.7s-.18.34-.24.75-.18.75-.26.75-.2.28-.26.62a2,2,0,0,1-.68,1.27,2.09,2.09,0,0,0-.3.74c-.06.3-.22.54-.35.54s-.24.08-.24.18-.12.14-.26.09-.22,0-.17,0c.23.37-1.49.66-1.84.31a2,2,0,0,0-.85-.12c-.4,0-.69-.07-.64-.15a12,12,0,0,0-2.82-.27A15.4,15.4,0,0,1,57.58,66c.05-.07-.1-.18-.33-.24a.7.7,0,0,1-.51-.5.71.71,0,0,0-.52-.5c-.43-.11-.89-.47-.89-.69a3.8,3.8,0,0,0-.75-.83,3.32,3.32,0,0,1-.75-.86,2.32,2.32,0,0,0-1-1.05c-.09,0-.21-.15-.27-.33s-.17-.33-.25-.33c-.24,0-1.67-1.52-1.57-1.68s0-.16-.13-.16c-.33,0-1-.75-1-1.14,0-.2-.08-.36-.18-.36s-.12.09-.06.2,0,.14-.07.07a.55.55,0,0,1-.19-.44c0-.2-.16-.36-.42-.42a.73.73,0,0,1-.52-.51.7.7,0,0,0-.5-.5c-.22,0-.4-.2-.4-.32a.46.46,0,0,0-.23-.36.76.76,0,0,1-.3-.47c0-.18-.16-.31-.27-.29a.17.17,0,0,1-.2-.19.67.67,0,0,0-.25-.43.83.83,0,0,1-.25-.51c0-.19-.16-.34-.46-.4a2.26,2.26,0,0,1-.92-.56,33,33,0,0,1-3.12-3.38c0-.08-.1-.15-.23-.15a.4.4,0,0,1-.33-.26c-.06-.15-.17-.22-.25-.17s-.2-.1-.26-.33-.18-.38-.27-.32-.16-.1-.16-.35-.06-.42-.25-.35-.25,0-.25-.06-.1-.16-.23-.16-.52-.89-.35-1.17c.06-.1-.1-.17-.41-.17s-.55-.09-.6-.21A2.3,2.3,0,0,0,37,44.5c-.37-.23-.67-.51-.67-.62a.24.24,0,0,0-.26-.21.41.41,0,0,1-.35-.34c0-.18-.15-.33-.23-.33s-.16-.16-.19-.36a.47.47,0,0,0-.36-.4,2,2,0,0,1-.78-.6c-.27-.31-.67-.76-.9-1a1.87,1.87,0,0,1-.43-.57,5,5,0,0,0-.79-.92c-1.6-1.62-2-2.12-2-2.3s-.11-.18-.24-.18a12.14,12.14,0,0,1-2.59-2.52,8.26,8.26,0,0,0-1.61-1.68,4,4,0,0,1-1.23-1.54c0-.16-.14-.26-.34-.26s-.3-.07-.22-.2,0-.16-.15-.09-.3,0-.37-.22-.19-.33-.3-.33-.71-.67-.64-.89-.08-.1-.22-.05-.35-.14-.63-.73a2.1,2.1,0,0,0-.68-.93,4.16,4.16,0,0,1-1.45-1.4c0-.09-.1-.16-.24-.16s-.28-.16-.34-.34a3.32,3.32,0,0,0-.69-.92c-.57-.58-.85-.75-.63-.38.08.12.05.14-.07.07a.57.57,0,0,1-.19-.45c0-.19-.06-.3-.13-.26s-.55-.32-.43-.45-.1-.14-.34-.2-.4-.16-.36-.23-1.34-1.68-1.57-1.68a.16.16,0,0,1-.17-.16c0-.21-1.12-1.33-1.23-1.22s-.13-.1-.2-.3c-.12-.4-.47-.82-.67-.82A4.38,4.38,0,0,1,10.79,17c0-.07-.06-.13-.19-.13s-.27-.15-.32-.33,0-.33.24-.33.31-.07.31-.16.34-.21.75-.27.75-.17.75-.24.27-.18.6-.24.56-.16.5-.22.13-.23.43-.39c.58-.3,1.74-.39,1.89-.16M61.17,15c0,.09.3.21.66.27s.67.18.67.27.11.15.24.15a.55.55,0,0,1,.41.29c.09.16.21.23.28.17s.26,0,.43.23.36.31.42.25.24.05.4.24a1.3,1.3,0,0,0,.43.35c.38,0,.56.21.56.57s.07.4.16.4.17.3.17.66-.07.67-.15.67a5.18,5.18,0,0,0-.21,1.68c0,1.23-.13,1.71-.31,1.82s-.26.57-.3,1.66a4.26,4.26,0,0,1-.21,1.51,3,3,0,0,0-.15,1.33v1.33h-.89a1.62,1.62,0,0,1-1.24-.33,1.43,1.43,0,0,0-.49-.33,3.39,3.39,0,0,1-.72-.67,2.87,2.87,0,0,0-.75-.67,1.54,1.54,0,0,1-.59-.47,2.25,2.25,0,0,0-.75-.59,4,4,0,0,1-1-.75c-.38-.36-.74-.6-.79-.55s-.09,0-.09-.11-.11-.19-.25-.19a.41.41,0,0,1-.35-.24.72.72,0,0,0-.48-.33.78.78,0,0,1-.5-.43c-.06-.19-.21-.34-.33-.34a1.81,1.81,0,0,1-.75-.52c-.28-.28-.56-.47-.62-.42s-.24-.09-.42-.31a1,1,0,0,0-.5-.41,2.45,2.45,0,0,1-.78-.65,3.41,3.41,0,0,0-1-.76c-.2-.06-.33-.19-.28-.27s0-.16-.17-.16a.92.92,0,0,1-.54-.33.93.93,0,0,0-.5-.33.16.16,0,0,1-.17-.2c0-.12,0-.21-.13-.22-.74-.05-.76-.39,0-.5.43-.07.74-.19.69-.27s.2-.15.56-.15a1.83,1.83,0,0,0,.76-.11,2.2,2.2,0,0,1,.92-.07c.61,0,.83,0,.91-.22a.39.39,0,0,1,.34-.26.33.33,0,0,0,.3-.19c0-.1.42-.22.85-.27s.79-.14.79-.21a2.55,2.55,0,0,1,1-.23,3,3,0,0,0,1.12-.25,2.42,2.42,0,0,1,1-.26c.48-.07.83-.19.78-.28s.29-.15.75-.15.85.07.85.15M16.92,50a5.79,5.79,0,0,0,1.42,1.36c.08,0,.19.17.25.38a4.13,4.13,0,0,0,1.49,1.55c.09,0,.15.09.13.21s.07.2.21.2a.25.25,0,0,1,.25.25c0,.13.07.25.16.25a15.73,15.73,0,0,1,2.5,2.39,3.29,3.29,0,0,0,1.41,1.27c.15,0,.24.07.18.16s.41.84.71.84a.8.8,0,0,1,.42.17l.59.49c.21.18.34.41.28.5s0,.18.18.18a7.68,7.68,0,0,1,1.73,1.48,10.59,10.59,0,0,0,1.81,1.59c.2.07.36.18.36.27s.1.11.22.06.3.09.4.31.14.39-.43.43a1.37,1.37,0,0,0-.69.17,1.39,1.39,0,0,1-.68.25,1,1,0,0,0-.79.52.63.63,0,0,1-.6.42c-.22,0-.43.08-.47.19s-.15.15-.3,0a2.08,2.08,0,0,0-1.49.08,2.39,2.39,0,0,1-.88.25c-.43.06-.79.18-.79.27s-.15.16-.33.16-.29.08-.24.23-.12.26-.67.34-.76.18-.76.27-5,.19-5.35-.06a1.5,1.5,0,0,1-.38-.66c-.06-.25-.21-.46-.35-.46a.85.85,0,0,1-.46-.22,1.54,1.54,0,0,0-.6-.35c-.2-.07-.32-.19-.27-.27s0-.16-.06-.16-.2-.15-.25-.33a.43.43,0,0,0-.44-.33c-.2,0-.31-.08-.26-.17s0-.18-.15-.19a3.42,3.42,0,0,1-.43-.06l-.34-.06c-.1,0-.13-.1-.08-.19s-.23-.59-.73-.74c-.86-.28-1.63-2.93-.85-2.93.09,0,.17-.22.17-.5s.1-.55.25-.6a.48.48,0,0,0,.25-.4.87.87,0,0,1,.22-.53,2.07,2.07,0,0,0,.33-.88c.06-.37.18-.69.28-.72s.17-.28.17-.55.08-.48.17-.48.13-.08.08-.17,0-.17.05-.17.21-.26.27-.58.18-.58.27-.58.16-.27.16-.59.09-.63.25-.69a.56.56,0,0,0,.25-.5.53.53,0,0,1,.24-.49.89.89,0,0,0,.34-.58c.06-.27.17-.49.24-.49s.19-.25.25-.57.19-.6.3-.63,1,.24.88.34m-14,3.7c0,.32,0,.45.08.29a1.42,1.42,0,0,0,0-.58c0-.16-.08,0-.08.29" transform="translate(0.01 -0.17)"/><path id="path1" class="cls-1" d="M32.55.75a3.07,3.07,0,0,1-.75.58c-.07,0-.13.08-.13.17,0,.34.4.15,1-.46a2.56,2.56,0,0,1,1-.68c.6-.09.61-.19,0-.19a1.66,1.66,0,0,0-1.14.58M34.88.28a1.42,1.42,0,0,0,.58,0c.16,0,0-.08-.29-.08s-.45,0-.29.08m4.66,0a3.34,3.34,0,0,0,.84,0c.2,0,0-.07-.46-.07s-.63,0-.38.08m6.14,0c1.15.12,2.23,1,1.23,1-.15,0-.22.07-.17.16s0,.19-.2.23.05.08.46.08.66,0,.54-.08-.21-.37-.21-.73,0-.62-.25-.55-.25,0-.25-.09-.37-.17-1-.16l-1,0,.93.1m8.49,0c0,.08-.15.11-.34.06s-.33,0-.33.1-.29.19-.67.19c-.7,0-.83.15-.41.5a.71.71,0,0,1,.25.45c0,.48.72.16.86-.39S53.92.5,56.91.49A10,10,0,0,0,59.33.32,10.6,10.6,0,0,0,56.75.17a10.73,10.73,0,0,0-2.58.15M60.5.5c-.37.12.18.17,1.92.17,0,0,.1-.06.12-.13S61,.33,60.5.5M64,.87a1.22,1.22,0,0,0,.92,0c.23-.14.1-.17-.62-.16-.91,0-.91,0-.3.18m1.72,0a.52.52,0,0,0,.42.17.49.49,0,0,0,.41-.17c.06-.09-.11-.16-.41-.16s-.48.07-.42.16m2.46.05a.63.63,0,0,0,.47.26,1.35,1.35,0,0,1,1.06,1.17c.07.29.19.52.27.52s.73-.82.6-1-.11,0-.11.09-.15.2-.33.2-.34-.11-.34-.35c0-.56-.3-1-.66-.9-.19,0-.34,0-.34-.1s-.15-.15-.34-.15-.32.08-.28.21m3.9.46a6.13,6.13,0,0,0,2.51.43c.25-.25-.31-.47-1.1-.41-.47,0-.85,0-.85-.07s-.17-.12-.37-.12-.31.05-.19.17M.87,1.87a2.15,2.15,0,0,0-.2,1.07,1.91,1.91,0,0,1-.17,1C.16,4.13.31,6,.73,6.7c.55,1,.88,1,.36,0C.69,6,.57,4,.9,3.71A1.52,1.52,0,0,0,1,3a1.44,1.44,0,0,1,.36-1c.41-.43-.07-.61-.49-.18M4,1.78a1.42,1.42,0,0,0,.58,0c.16,0,0-.07-.29-.07s-.45,0-.29.07m14.83.06a1.75,1.75,0,0,0,1.08,0l.8-.16H19.67c-.8,0-1,0-.8.15m2.8.08a.69.69,0,0,0,.37.25c.09,0,.08-.11,0-.25a.64.64,0,0,0-.37-.25c-.1,0-.08.11,0,.25M77,1.83a9.82,9.82,0,0,1,1.74.26,16,16,0,0,1,2.47,1.65c.08.12.12.1.12-.05,0-.42-1.3-1.57-1.66-1.48s-.34,0-.34-.16-.1-.23-.33-.17-.33,0-.33-.06a4.24,4.24,0,0,0-1.55-.13l-1.54,0L77,1.83M48.76,2c-.06.1,0,.18.13.18s.3.22.36.5.18.5.26.5.16.11.16.25.14.25.33.25.33-.07.33-.15-.15-.19-.33-.23a.43.43,0,0,1-.33-.36c0-.14-.08-.26-.17-.26s-.17-.11-.17-.23c0-.33-.44-.67-.57-.45m-19.88.29c-.21,0-.38.14-.38.22s-.21.18-.46.22,0,.06.54,0c.81,0,1-.08,1.06-.31s0-.32-.76-.18m-5.46.21c-.12.2,1.73.39,3,.3.95-.06.94-.06-.3-.09a3.41,3.41,0,0,1-1.29-.17c0-.19-1.29-.23-1.41,0M1.17,8c0,.19.07.34.16.34s.17-.1.17-.24a.45.45,0,0,0-.17-.34c-.09-.06-.16,0-.16.24m0,3.1c0,1,.06,1.56.16,1.49A4.39,4.39,0,0,0,1.5,11c0-.88-.07-1.49-.17-1.49s-.16.64-.16,1.59m80.16,3.4a13.44,13.44,0,0,0,.17,3.09c.11.07.17-1,.17-3a11.52,11.52,0,0,0-.17-3.09,10.84,10.84,0,0,0-.17,3m-67.5.2c-.32.17-.43.28-.25.24a9,9,0,0,1,1.3-.12c.61,0,.94-.09.9-.21-.1-.32-1.33-.26-1.95.09m2.34,0c0,.09.14.16.32.16a.57.57,0,0,1,.43.17c.15.25.41,0,.31-.26s-1.06-.34-1.06-.07M.91,14.88a3.06,3.06,0,0,0,0,1l.15.82.07-1c.07-.93-.08-1.41-.27-.9m56.92.62c0,.09.12.17.25.17s.25-.08.25-.17-.11-.17-.25-.17-.25.08-.25.17m-2.16.5c0,.09.15.17.33.17s.33-.08.33-.17-.15-.17-.33-.17-.33.08-.33.17m256.91,0c-.09.09-.34.29-.55.45a10.25,10.25,0,0,0-1.53,3.11,7.18,7.18,0,0,1-.48,1.2,20,20,0,0,0-.85,2.17,18.24,18.24,0,0,1-.77,1.94,6.85,6.85,0,0,0-.5,1.37,1.38,1.38,0,0,1-.25.68,4.66,4.66,0,0,0-.82,1.89c0,.19-.07.35-.16.35a.19.19,0,0,0-.17.21,3.07,3.07,0,0,1-.33.83,2.7,2.7,0,0,0-.34.94,2.05,2.05,0,0,1-.24.79,16.9,16.9,0,0,0-1.2,3A16.89,16.89,0,0,1,303.07,38a2,2,0,0,0-.24.71,1.36,1.36,0,0,1-.16.55,25.63,25.63,0,0,0-1.28,3,2.91,2.91,0,0,1-.33.78,1.42,1.42,0,0,0-.23.71c0,.21-.07.38-.16.38s-.2.26-.27.58a1.38,1.38,0,0,1-.25.68.49.49,0,0,0-.15.37,2.22,2.22,0,0,1-.23.73,4.59,4.59,0,0,0-.35,1c-.06.28-.17.51-.25.51s-.19.28-.25.62a2.26,2.26,0,0,1-.31.86,7,7,0,0,0-.73,1.81c-.05.21-.15.38-.22.38s-.18.23-.25.51a4.56,4.56,0,0,1-.34,1,2,2,0,0,0-.24.67,1.92,1.92,0,0,1-.23.66,11.84,11.84,0,0,0-1.22,3.06c-.05.35-.15.64-.22.64s-.3.26-.49.58c-.8,1.28-1.8,2.08-2.63,2.08a1.1,1.1,0,0,0-.65.18,4,4,0,0,1-1.36.27,3.16,3.16,0,0,0-1.2.23c0,.07-.16.16-.37.19s-.39.18-.42.55c-.09.86.13.89,8.21.93,7.24,0,7.63,0,8-.24s.27-1.27,0-1.27c-.14,0-.25-.07-.25-.15a3.18,3.18,0,0,0-1.27-.26,3.19,3.19,0,0,1-2.28-.84,5.17,5.17,0,0,1,.23-2.35,3.06,3.06,0,0,0,.26-1c.06-.43.17-.78.25-.78s.14-.1.14-.23a.72.72,0,0,1,.25-.43.84.84,0,0,0,.25-.57,4,4,0,0,1,.9-1.81c.25-.16,17-.15,17.22,0a2.3,2.3,0,0,1,.47.87c.14.4.52,1.27.83,1.93a7.69,7.69,0,0,1,.58,1.45,7,7,0,0,0,.52,1.37c.67,1.48.69,2.41.06,2.41-.14,0-.24.08-.24.17s-.12.17-.25.17c-.37,0-.32.86.06,1.19.54.46,14.83.57,15.84.12,1.36-.6.44-1.56-1.65-1.71A6.84,6.84,0,0,1,334.5,61a1.07,1.07,0,0,0-.54-.25c-.25-.06-.46-.18-.46-.27a.19.19,0,0,0-.21-.17c-.27,0-1-.58-1-.8s-.11-.2-.25-.26a.42.42,0,0,1-.25-.35c0-.14-.06-.25-.15-.25s-.19-.19-.25-.42-.17-.42-.25-.42-.2-.22-.26-.5-.18-.5-.25-.5-.19-.22-.25-.5-.17-.5-.25-.5-.18-.26-.24-.58-.18-.58-.26-.58-.19-.23-.25-.5-.18-.5-.27-.5-.15-.18-.15-.4c0-.37.08-.39,1.26-.48a5.16,5.16,0,0,0,1.46-.26,2.18,2.18,0,0,1,.74-.27c.3-.07.54-.18.54-.26s.43-.2,1-.26a2.61,2.61,0,0,0,1.08-.3,5.75,5.75,0,0,1,2.08-.25c2,0,2.71-.3,2.71-1s-.64-.86-3.25-.87c-5.09,0-9.25-.21-9.25-.44a3.72,3.72,0,0,0-.4-1,6.63,6.63,0,0,1-.51-1.26c-.06-.28-.18-.5-.25-.5s-.19-.23-.26-.52a4.29,4.29,0,0,0-.34-.95,2.06,2.06,0,0,1-.24-.66c0-.11-.07-.21-.16-.21s-.21-.27-.27-.61a4.7,4.7,0,0,0-.34-1,2.08,2.08,0,0,1-.23-.64c0-.11-.07-.21-.16-.21s-.2-.26-.26-.58-.17-.58-.25-.58-.18-.23-.25-.52a4.29,4.29,0,0,0-.34-.95,2.07,2.07,0,0,1-.24-.72,2.1,2.1,0,0,0-.25-.75,2.34,2.34,0,0,1-.25-.77c0-.16-.07-.29-.16-.29s-.2-.26-.26-.58a1.63,1.63,0,0,0-.34-.77.86.86,0,0,1-.24-.59c0-.22-.06-.4-.15-.4s-.19-.26-.25-.58-.18-.58-.27-.58-.16-.19-.16-.41a.66.66,0,0,0-.23-.54,1.44,1.44,0,0,1-.32-.8c-.06-.37-.19-.69-.28-.72s-.17-.25-.17-.47a.55.55,0,0,0-.25-.5.52.52,0,0,1-.25-.47,1.4,1.4,0,0,0-.24-.69A2.87,2.87,0,0,1,318.4,27c-.06-.44-.17-.79-.25-.79s-.18-.27-.25-.59a1.35,1.35,0,0,0-.24-.67,1.67,1.67,0,0,1-.24-.74,1.74,1.74,0,0,0-.35-.85.68.68,0,0,1-.24-.42c0-.13-.06-.23-.14-.23s-.2-.3-.25-.67-.18-.67-.26-.67-.19-.25-.25-.57-.18-.59-.27-.62-.21-.36-.27-.72a2.32,2.32,0,0,0-.21-.75,3,3,0,0,1-.68-1.25.92.92,0,0,0-.33-.54,1,1,0,0,1-.34-.43c0-.47-.89-.79-1.25-.44M63.5,16.13a1,1,0,0,0,.75.7.35.35,0,0,1,.3.21c0,.12.13.16.2.09s0-.23-.13-.36-.29-.21-.35-.15-.25-.07-.44-.29-.33-.3-.33-.2m-44.29.37a1.7,1.7,0,0,0,.57.33c.19,0-.61-.66-.82-.66s0,.15.25.33m177.12,0a9.81,9.81,0,0,1-2.45.28,13.44,13.44,0,0,0-2.54.25,2.06,2.06,0,0,1-.84.26,3.54,3.54,0,0,0-.92.25,3.25,3.25,0,0,1-1,.24c-.43.06-.79.18-.79.25s-.33.19-.75.25-.75.18-.75.26-.22.19-.5.25-.5.18-.5.26a.17.17,0,0,1-.19.16,5.91,5.91,0,0,0-1.78.87.31.31,0,0,1-.27.13,2.32,2.32,0,0,0-.81.54,14.13,14.13,0,0,1-1.61,1.3,9.71,9.71,0,0,0-.8.61.75.75,0,0,1-.35.21c-.07,0-.23.19-.35.42s-.32.42-.43.42-.37.26-.57.58a1.77,1.77,0,0,1-.48.58,1.72,1.72,0,0,0-.44.63,9,9,0,0,1-.84,1.24,8,8,0,0,0-.75,1.08c-.13.26-.4.75-.61,1.09a10.65,10.65,0,0,0-.74,1.66,6.24,6.24,0,0,1-.47,1.14,9.63,9.63,0,0,0-.84,2.75c-.1.55-.25,1.33-.33,1.75a11.78,11.78,0,0,0-.16,1.84,3.14,3.14,0,0,1-.19,1.27,1.71,1.71,0,0,0-.09,1.08c.06.49.18,1.75.27,2.81a15.44,15.44,0,0,0,.32,2.33,8.06,8.06,0,0,1,.26,1.25,8.38,8.38,0,0,0,1,3,3.82,3.82,0,0,1,.4,1.06,4.7,4.7,0,0,0,.82,1.56,4.71,4.71,0,0,1,.42.71c.17.34.38.63.45.63a.16.16,0,0,1,.14.18c0,.16.23.48,1,1.43a.77.77,0,0,1,.16.37,17.72,17.72,0,0,0,3.66,3.52,2.22,2.22,0,0,1,.71.45,6.2,6.2,0,0,0,1.67,1.09c.25.11.46.26.46.33s.11.13.24.13a.79.79,0,0,1,.46.22,1.83,1.83,0,0,0,.7.34,2,2,0,0,1,.72.36.91.91,0,0,0,.55.24.58.58,0,0,1,.41.16,2,2,0,0,0,.93.28c.45.06.82.17.82.24s.36.19.79.25a3,3,0,0,1,1,.3c.36.29,11.82.27,12,0a2.78,2.78,0,0,1,1.29-.32,3.52,3.52,0,0,0,1.37-.33,1,1,0,0,1,.62-.22.66.66,0,0,0,.48-.15,1.51,1.51,0,0,1,.68-.26c.32-.06.59-.17.59-.25s.22-.2.5-.26.5-.17.5-.24.18-.19.41-.25.42-.17.42-.26.1-.17.23-.17a1.57,1.57,0,0,0,.65-.33,1.51,1.51,0,0,1,.65-.33,1.5,1.5,0,0,0,.64-.39,2.75,2.75,0,0,1,.71-.49c.16-.06.29-.19.29-.27s.13-.21.29-.26a4.6,4.6,0,0,0,1-.84,3.15,3.15,0,0,1,1-.75c.11,0,.21-.07.21-.15a1.78,1.78,0,0,1,.37-.55c.21-.22.67-.78,1-1.23a7.28,7.28,0,0,1,.79-.88.28.28,0,0,0,.13-.24.93.93,0,0,1,.23-.44A35.08,35.08,0,0,0,220.24,49a.45.45,0,0,1,.14-.23,1.06,1.06,0,0,0,.12-.53,2.9,2.9,0,0,1,.22-.93,14.09,14.09,0,0,0,1.11-4.53,43.62,43.62,0,0,0,0-7.33c-.08-.46-.2-1.14-.25-1.5a6.13,6.13,0,0,0-.19-.92,8.36,8.36,0,0,1-.36-1.23,2.43,2.43,0,0,0-.34-.82,1,1,0,0,1-.18-.58,3.41,3.41,0,0,0-.41-1.13c-.23-.41-.41-.76-.41-.78a1.5,1.5,0,0,0-.46-.84.52.52,0,0,1-.22-.39,3.13,3.13,0,0,0-.5-1,4.9,4.9,0,0,1-.5-.84,8,8,0,0,0-1.15-1.49c-.08-.09-.65-.62-1.28-1.17s-1.22-1.09-1.33-1.21a.77.77,0,0,0-.36-.21,3.52,3.52,0,0,1-.8-.58,2.67,2.67,0,0,0-.87-.58A.19.19,0,0,1,212,20c0-.09-.11-.17-.24-.17a.8.8,0,0,1-.47-.23,1.86,1.86,0,0,0-.76-.34c-.29-.07-.53-.19-.53-.27s-.09-.16-.21-.16a2.06,2.06,0,0,1-.66-.23c-.33-.18-.47-.19-.52,0s-.09.06-.1-.1-.15-.29-.48-.29a1.13,1.13,0,0,1-.6-.13.5.5,0,0,0-.24-.14,6.8,6.8,0,0,1-1.27-.38,4.13,4.13,0,0,0-1.42-.3,2.07,2.07,0,0,1-.85-.25,13.06,13.06,0,0,0-2.58-.25,18.49,18.49,0,0,1-2.65-.21,4.27,4.27,0,0,0-2.09-.05m184.34,0a6,6,0,0,1-1.84.26,7.68,7.68,0,0,0-1.92.27,2.14,2.14,0,0,1-.92.26c-.45.06-.82.16-.82.23s-.32.17-.71.23a9.78,9.78,0,0,0-3.4,1.63c-.33.37-.39,3.76-.07,4a13.3,13.3,0,0,1,.2,2.66c.05,1.85.12,2.59.27,2.64a.33.33,0,0,1,.21.3c0,.15.17.24.48.24.63,0,.94-.49,1.09-1.75a4.05,4.05,0,0,1,.26-1.17,2.89,2.89,0,0,0,.24-.86,2.11,2.11,0,0,1,.52-1.07,1.32,1.32,0,0,0,.41-.6,2.57,2.57,0,0,1,.58-.87,2.66,2.66,0,0,0,.58-.83.2.2,0,0,1,.19-.19,2.61,2.61,0,0,0,.8-.49,3.72,3.72,0,0,1,1.11-.6,2.32,2.32,0,0,0,.69-.28c1-.78,6.13,0,7.31,1.05a1.13,1.13,0,0,0,.54.32.21.21,0,0,1,.2.22,1.34,1.34,0,0,0,.49.62c.27.23.5.5.5.62a4.07,4.07,0,0,0,.83,1.54c.08,0,.18.37.24.83a2.36,2.36,0,0,0,.25.91,4.67,4.67,0,0,1,.26,1.43,3.19,3.19,0,0,0,.27,1.33,9,9,0,0,1,0,3.36,4.38,4.38,0,0,0-.27,1.56,4.58,4.58,0,0,1-.34,1.72,1.77,1.77,0,0,0-.22,1c0,.51-.08.78-.25.84a.56.56,0,0,0-.25.5c0,.22-.08.4-.17.4s-.17.13-.17.29a2.94,2.94,0,0,1-.33.92,3.14,3.14,0,0,0-.33.8.89.89,0,0,1-.25.43.9.9,0,0,0-.25.57c0,.17-.06.32-.13.32a2.36,2.36,0,0,0-.52.83,2.26,2.26,0,0,1-.54.84c-.08,0-.15.11-.15.25a.41.41,0,0,1-.24.35.76.76,0,0,0-.35.44,3.59,3.59,0,0,1-.76,1,2.83,2.83,0,0,0-.65.78,2.55,2.55,0,0,1-.54.73c-.3.31-.73.83-1,1.13A17.33,17.33,0,0,1,379,51.17a.23.23,0,0,0-.19.25.23.23,0,0,1-.21.25,1.45,1.45,0,0,0-.79.77,4.47,4.47,0,0,1-1.37,1.27.45.45,0,0,0-.29.37.23.23,0,0,1-.19.25,2.67,2.67,0,0,0-.83.67,3.43,3.43,0,0,1-.78.67,4.83,4.83,0,0,0-1,.83,4.16,4.16,0,0,1-1,.83.18.18,0,0,0-.18.18c0,.2-.42.66-.6.66a2.89,2.89,0,0,0-.69.58,2.51,2.51,0,0,1-.7.58,5.15,5.15,0,0,0-2,2.44c0,.56.35,1.06.76,1.06.13,0,.24.08.24.17s4.42.17,13.41.16H396l.88-.44c1.17-.6,1.31-.76,1.42-1.56,0-.37.19-.72.32-.77s.22-.35.22-.8a1.4,1.4,0,0,1,.16-.82,3.51,3.51,0,0,0,.27-1.22,4.55,4.55,0,0,1,.26-1.31,26.54,26.54,0,0,0,.41-5.33c-.28-.75-1.58.08-1.72,1.11,0,.36-.15.66-.23.66s-.15.1-.15.23a.66.66,0,0,1-.23.42,1.48,1.48,0,0,0-.33.69.93.93,0,0,1-.52.69,1,1,0,0,0-.52.57.69.69,0,0,1-.58.48c-.26.06-.48.17-.48.25s-.23.19-.52.25a4.31,4.31,0,0,0-.95.35,3.25,3.25,0,0,1-1.23.23c-.44,0-.8.09-.84.2s-1.91.21-6.77.27c-6.95.08-7.49,0-6.14-.59a10.21,10.21,0,0,0,1.4-1.06c.57-.5,1.36-1.15,1.75-1.46,2.64-2.07,9.43-8.58,9.46-9.07a1.18,1.18,0,0,1,.29-.42,9.27,9.27,0,0,0,.71-.85A6.63,6.63,0,0,1,393,43a.88.88,0,0,0,.29-.47.28.28,0,0,1,.13-.25,4.67,4.67,0,0,0,.87-1.23,1.8,1.8,0,0,1,.34-.46,7.72,7.72,0,0,0,1.16-2.26.26.26,0,0,1,.13-.22,5,5,0,0,0,.87-2c0-.2.08-.36.17-.36a.17.17,0,0,0,.17-.15,2.45,2.45,0,0,1,.19-.63,5.31,5.31,0,0,0,.43-1.55,2.11,2.11,0,0,1,.27-.82c.26-.32.22-6.06,0-6.15-.1,0-.19-.3-.19-.59a1.85,1.85,0,0,0-.22-.86,2.68,2.68,0,0,1-.35-.87c-.07-.3-.18-.54-.25-.54s-.19-.21-.25-.46a1.58,1.58,0,0,0-.23-.54,10.45,10.45,0,0,1-.69-.92,11.11,11.11,0,0,0-2.28-2.42,1,1,0,0,1-.38-.23,9.4,9.4,0,0,0-2.74-1.33,4.72,4.72,0,0,1-1.06-.36,2.15,2.15,0,0,0-.74-.24.5.5,0,0,1-.38-.15,6.51,6.51,0,0,0-1.76-.27,6.51,6.51,0,0,1-1.76-.27,14.59,14.59,0,0,0-4.07,0M238,16.77a.71.71,0,0,0-.21.57.86.86,0,0,1-.15.57,2.2,2.2,0,0,0-.26.92c-.07.46-.19.84-.27.84s-.15.37-.15.83.07.83.17.83a.17.17,0,0,1,.16.17c0,.09-.11.17-.25.17s-.25.16-.25.5-.06.5-.13.5a5,5,0,0,0-.17,1.64c0,1.85.1,2.13.94,2,.51-.12.61-.27,1.22-1.84.37-1,.8-1.59,1.12-1.59a.63.63,0,0,0,.35-.23,1.88,1.88,0,0,1,.89-.36A2.67,2.67,0,0,0,242,22a38.65,38.65,0,0,1,5.79-.26l5.56-.06V39.22c0,9.7-.06,17.63-.14,17.68a3.49,3.49,0,0,0-.23,1.23c-.1,1.46-.55,2.51-1.12,2.65a1.2,1.2,0,0,0-.51.24,3.78,3.78,0,0,1-1.29.25,2.81,2.81,0,0,0-1.21.25.17.17,0,0,1-.18.15c-.29,0-.65.45-.65.82,0,.19.11.34.24.34a.32.32,0,0,1,.29.17c0,.1,3.45.18,9.39.2,10.39,0,10.41,0,10.41-1,0-.68-.48-.86-2.58-1-2.39-.13-3.14-.5-3.36-1.63a2.49,2.49,0,0,0-.23-.73,10.57,10.57,0,0,1-.34-3.11,1.86,1.86,0,0,0-.15-1.05.88.88,0,0,1,0-1c.13-.13.13-.21,0-.29a4.11,4.11,0,0,1-.07-2.15,2.09,2.09,0,0,0,.06-1.53,5.48,5.48,0,0,1,0-2.67c.23-.14.21-1,0-1.22s-.16-.27,0-.53a1.81,1.81,0,0,0,0-1.62c-.15-.15-.14-.26,0-.46s.17-.31,0-.46a53.81,53.81,0,0,1,0-8.7,28.15,28.15,0,0,0,0-6.42c-.16-.26-.16-.37,0-.53a7.74,7.74,0,0,0,0-3.42,2.07,2.07,0,0,1-.13-1.07l.05-.9h5c3.54,0,5.09.06,5.26.2a2.45,2.45,0,0,0,.92.3,2.11,2.11,0,0,1,1.06.51,1.23,1.23,0,0,0,.68.4.27.27,0,0,1,.3.25,2.7,2.7,0,0,0,.34.87,3.06,3.06,0,0,1,.33,1.17c0,.74.43,1.37.95,1.37.82,0,.87-.2,1-4.19a18.43,18.43,0,0,1,.29-3.84c.13-.08.12-.18,0-.33a1.22,1.22,0,0,1-.21-.75c0-.8-1.21-1.22-2-.67a6,6,0,0,1-1.63.24,4.91,4.91,0,0,0-1.51.23,2.34,2.34,0,0,1-1.65,0,13.26,13.26,0,0,0-4.17,0,42.56,42.56,0,0,1-7.14,0,6.57,6.57,0,0,0-2.86,0c-.08.13-.18.13-.36,0s-.27-.16-.39,0-.19.19-.36,0a18.74,18.74,0,0,0-5.39,0,30.09,30.09,0,0,1-6.15,0,6.24,6.24,0,0,0-1.72-.27A6.89,6.89,0,0,1,240.4,17a5.8,5.8,0,0,0-2.36-.21M19.94,17c-.11.19.42.59,1.06.79.37.12.39.1.19-.14a.84.84,0,0,0-.53-.28.57.57,0,0,1-.46-.27c-.09-.16-.2-.2-.26-.1M65,17.13a.82.82,0,0,0,.53.54c.25,0,.14-.25-.2-.47-.18-.11-.33-.14-.33-.07m41.5.37c0,.09-.19.17-.42.17a.57.57,0,0,0-.52.25c-.11.29.38.91.72.91.12,0,.22.07.22.15a5,5,0,0,0,1.75.27,7.57,7.57,0,0,1,1.75.23c0,.06.22.2.49.32a1.17,1.17,0,0,1,.61.59,1.07,1.07,0,0,0,.26.46,3.32,3.32,0,0,1,.25,1.29,2.72,2.72,0,0,0,.25,1.19c.08,0,.14.3.14.67s-.07.67-.17.67-.21,16.16,0,16.43.11.24,0,.31a5.68,5.68,0,0,0,0,3c.16.07.15.12,0,.24s-.19.22,0,.51a.55.55,0,0,1,0,.72c-.19.29-.19.37,0,.49s.18.2,0,.48a2,2,0,0,0-.21.9c0,.32.09.61.21.65s.16.15,0,.4c-.25.43-.31,5-.06,5s.17.4.17.92-.06.92-.14.92a4.29,4.29,0,0,0-.25,1.52,6.38,6.38,0,0,1-.28,1.73.59.59,0,0,0-.15.35,1.54,1.54,0,0,1-.65,1.4l-.71.33a5.38,5.38,0,0,1-1.25.25c-1.45.17-1.9.4-1.9,1,0,1-.16.93,7.62,1,5.57,0,7.22.1,7.42.27s.3.16.37,0,.88-.23,1,0a77.63,77.63,0,0,0,10.12,0,4.89,4.89,0,0,1,1.51-.26,4.72,4.72,0,0,0,1.5-.26,2.92,2.92,0,0,1,1.14-.27,3,3,0,0,0,1.13-.26.79.79,0,0,1,.54-.15,1.62,1.62,0,0,0,.79-.23,2.86,2.86,0,0,1,.86-.34c.3-.07.55-.18.55-.26s.22-.19.49-.25A10.89,10.89,0,0,0,144.29,60a3.42,3.42,0,0,1,.59-.26c.16-.06.29-.15.29-.21a1.74,1.74,0,0,1,.62-.44,5.72,5.72,0,0,0,.88-.53c1.15-1,1.65-1.42,2.43-2.2a6.25,6.25,0,0,0,.9-1,2.43,2.43,0,0,1,.5-.63,2.52,2.52,0,0,0,.5-.6,7.49,7.49,0,0,1,.83-1.26,8.88,8.88,0,0,0,1.26-2.5c0-.27.17-.5.24-.5s.2-.24.26-.54a2.92,2.92,0,0,1,.35-.87,1.49,1.49,0,0,0,.23-.69c0-.2.07-.39.15-.42a2.87,2.87,0,0,0,.28-1.23,3.85,3.85,0,0,1,.25-1.25,5.21,5.21,0,0,0,.25-1.55,4.13,4.13,0,0,1,.26-1.45,18.09,18.09,0,0,0,0-4.41,6.11,6.11,0,0,1-.25-1.58,4.7,4.7,0,0,0-.24-1.51c-.08,0-.18-.47-.23-1a5.54,5.54,0,0,0-.36-1.54A2.41,2.41,0,0,1,154,31c0-.11-.07-.21-.15-.21s-.2-.26-.26-.58-.17-.58-.25-.58-.2-.23-.26-.5-.17-.5-.25-.5-.19-.23-.25-.5-.17-.5-.25-.5-.18-.14-.24-.31a2.61,2.61,0,0,0-.59-.79,1.78,1.78,0,0,1-.49-.69c0-.12-.08-.21-.16-.21s-.2-.14-.26-.31-.35-.58-1.78-1.9c-1-.93-1.27-1.13-1.43-1.13A.94.94,0,0,1,147,22a.94.94,0,0,0-.52-.33.4.4,0,0,1-.33-.25.41.41,0,0,0-.35-.25c-.14,0-.26-.08-.26-.17s-.19-.21-.42-.26-.41-.17-.41-.25-.77-.51-2.55-1.08a7.35,7.35,0,0,1-1.55-.6.83.83,0,0,0-.55-.14,1,1,0,0,1-.63-.18,4.2,4.2,0,0,0-1.45-.27,3.17,3.17,0,0,1-1.27-.24c0-.08-.17-.14-.38-.14a40.77,40.77,0,0,1-5.22-.36c-.27-.21-24.57-.19-24.57,0M.67,17.72a3.18,3.18,0,0,1-.34.86c-.33.65-.47,2.19-.18,2a4.21,4.21,0,0,0,.44-1.77A2.43,2.43,0,0,1,.81,18c.23-.43.24-.54,0-.54s-.16.1-.16.22M81.33,22.5A23.81,23.81,0,0,0,81.5,27a23.81,23.81,0,0,0,.17-4.5A23.81,23.81,0,0,0,81.5,18a23.81,23.81,0,0,0-.17,4.5M65.67,18.83c0,.37.07.67.16.67s.17-.3.17-.67-.07-.66-.17-.66-.16.3-.16.66M49.75,18.5c-.06.09,0,.17.16.17a.4.4,0,0,1,.36.23.71.71,0,0,0,.37.35c.16.06.07-.11-.21-.41-.56-.57-.54-.57-.68-.34M12.67,19c0,.18.32.67.33.5s.19.07.42.32.41.39.41.31a2.67,2.67,0,0,0-.58-.7c-.32-.31-.58-.5-.58-.43m10.66.36a1,1,0,0,0,.34.44c.38.34.5,0,.13-.38s-.47-.27-.47-.06m28.84.88c0,.22.83,1,.93.93s.09-.14,0-.16l-.53-.45c-.25-.22-.45-.36-.45-.32m147.16.31c0,.08.34.2.75.26s.75.17.75.25.27.19.59.25.58.17.58.24.22.19.49.25a1.49,1.49,0,0,1,.69.34.71.71,0,0,0,.51.24c.17,0,.31.07.31.16s.16.2.35.26a3.9,3.9,0,0,1,1,.77,3.56,3.56,0,0,0,.76.65A8.64,8.64,0,0,1,207.83,26a1.64,1.64,0,0,0,.49.57,2.11,2.11,0,0,1,.61.87c.06.25.16.44.22.44a2.17,2.17,0,0,1,.5.75c.2.42.44.75.53.75s.15.15.15.34a2.67,2.67,0,0,0,.34.95,3.1,3.1,0,0,1,.33.84c0,.11.07.21.16.21s.21.28.27.62a2.65,2.65,0,0,0,.24.79,3.53,3.53,0,0,1,.23.91,1.87,1.87,0,0,0,.27.84,6.7,6.7,0,0,1,.27,1.76,6.45,6.45,0,0,0,.26,1.76,33.79,33.79,0,0,1,0,6.52,5.93,5.93,0,0,0-.25,1.69,4.74,4.74,0,0,1-.26,1.59,3.42,3.42,0,0,0-.29,1.31,3.26,3.26,0,0,1-.25,1.21c-.07,0-.18.22-.24.5s-.18.5-.27.5-.15.12-.15.27a6.47,6.47,0,0,1-.85,1.89,1.21,1.21,0,0,0-.22.46c-.07.21-.19.38-.28.38a.16.16,0,0,0-.15.17c0,.45-1.8,2.42-2.88,3.16a2.4,2.4,0,0,0-.62.52c0,.06-.26.16-.58.22s-.59.17-.59.25-.22.2-.5.26a5.75,5.75,0,0,0-1,.37,2.58,2.58,0,0,1-1,.25c-.26,0-.48.06-.48.14a25.56,25.56,0,0,1-5.4,0,.5.5,0,0,0-.24-.14,5.5,5.5,0,0,1-2-.41c0-.07-.34-.19-.75-.25s-.75-.17-.75-.25-.27-.19-.59-.25-.58-.17-.58-.24-.19-.18-.42-.24-.41-.17-.41-.26-.12-.17-.25-.17a.25.25,0,0,1-.25-.25c0-.13-.08-.25-.18-.25a6.49,6.49,0,0,1-2.16-1.71,4.82,4.82,0,0,0-1.14-.95c-.1,0-.19-.12-.19-.25s-.07-.25-.17-.25-.16-.12-.16-.25a.89.89,0,0,0-.34-.54,1,1,0,0,1-.33-.49.3.3,0,0,0-.12-.25,3.3,3.3,0,0,1-.88-1.36.71.71,0,0,0-.25-.45.73.73,0,0,1-.25-.5.75.75,0,0,0-.25-.5,1,1,0,0,1-.25-.68c0-.27-.07-.48-.15-.48s-.19-.19-.25-.42-.17-.42-.26-.42-.21-.35-.27-.79a2.27,2.27,0,0,0-.25-.88,3.58,3.58,0,0,1-.25-1.25,3.3,3.3,0,0,0-.3-1.28,70.49,70.49,0,0,1,0-10.48,4.14,4.14,0,0,0,.31-1.36,3.06,3.06,0,0,1,.27-1.21,1.09,1.09,0,0,0,.15-.65,1.13,1.13,0,0,1,.24-.75,1.89,1.89,0,0,0,.35-.86c.06-.36.17-.65.26-.65s.19-.19.25-.42.17-.42.25-.42a.17.17,0,0,0,.15-.17,3.57,3.57,0,0,1,.88-1.3.3.3,0,0,0,.12-.25,3.28,3.28,0,0,1,.74-.92,4.21,4.21,0,0,0,.84-1,.83.83,0,0,1,.54-.42,1.94,1.94,0,0,0,.82-.51,1.26,1.26,0,0,1,.68-.41,1.44,1.44,0,0,0,.64-.22,2.52,2.52,0,0,1,.78-.34c.25-.06.46-.18.46-.26s.36-.2.79-.26a5.81,5.81,0,0,0,1.13-.26c.63-.29,6.91-.28,6.91,0m-175.16,0c0,.29.53.87.8.87s.26,0,0-.23a.73.73,0,0,1-.29-.49.28.28,0,0,0-.25-.28c-.14,0-.25.06-.25.13m-24,.71a14.76,14.76,0,0,0,.47,5.27c.21.38.34.74.29.79s0,.19.09.31a3.34,3.34,0,0,1,.29,1.09c.14,1,.41,1.33.41.46A12,12,0,0,0,.79,26a7.88,7.88,0,0,1-.23-1.74,4.82,4.82,0,0,0-.2-1.47,1.65,1.65,0,0,1,0-.92c.14-.78-.06-1.38-.24-.7M127.26,21a6.22,6.22,0,0,0,1.74.27,7.24,7.24,0,0,1,1.79.28.52.52,0,0,0,.45.07.32.32,0,0,1,.35.06c0,.09.31.16.57.16a1,1,0,0,1,.67.25.86.86,0,0,0,.59.25,2.39,2.39,0,0,1,.86.24,10.18,10.18,0,0,0,1.71.69,2.14,2.14,0,0,1,.75.44,4.94,4.94,0,0,0,1,.66,3.76,3.76,0,0,1,1,.65,1,1,0,0,0,.43.32,13.21,13.21,0,0,1,3.15,3,10.36,10.36,0,0,0,.75,1.13,10,10,0,0,1,.83,1.29c.18.34.37.62.44.62s.16.23.22.5.18.5.25.5.19.3.25.67.18.67.27.67.15.25.15.55a1.72,1.72,0,0,0,.24.87,2.05,2.05,0,0,1,.25,1c0,.39.07.71.14.71s.1.29.07.65,0,.7.12.76a38.93,38.93,0,0,1,0,7.16,6,6,0,0,0-.26,1.71,7.48,7.48,0,0,1-.26,1.8,2.36,2.36,0,0,0-.26.8,1.5,1.5,0,0,1-.27.72.49.49,0,0,0-.15.37,3.23,3.23,0,0,1-.33,1,3.87,3.87,0,0,0-.32.87c0,.12-.08.21-.16.21s-.21.16-.27.36c-.18.55-.56,1-3,3.26a4.6,4.6,0,0,1-1.08.8c-.18.06-.33.17-.33.25s-.17.2-.38.26a2,2,0,0,0-.65.36,1.35,1.35,0,0,1-.5.28,11.36,11.36,0,0,0-1.56.6,4,4,0,0,1-1.58.38c0-.05-.1,0-.23.1a9,9,0,0,1-2.25.3,7.43,7.43,0,0,0-2,.25,12,12,0,0,1-3.39,0,1.26,1.26,0,0,0-.57-.16l-1.75-.15a4.52,4.52,0,0,1-1.37-.24,1.43,1.43,0,0,0-.67-.25,3.33,3.33,0,0,1-2.32-3.34,1.32,1.32,0,0,0-.16-.56c-.25-.4-.15-33.56.11-33.81a2.49,2.49,0,0,1,1.09-.33,2.24,2.24,0,0,0,1-.24,19.52,19.52,0,0,1,4.83,0m-73.64.58c.16.22.35.36.41.32s-.37-.72-.57-.72,0,.18.16.4m11.92.26c0,.32,0,.45.07.29a1.14,1.14,0,0,0,0-.58c0-.16-.07,0-.07.29M26.67,22c0,.19.48.5,1.16.74.14,0,0-.14-.28-.43-.56-.54-.88-.66-.88-.31M16.61,23c0,.07,0,.22.15.33s.26.15.3.08,0-.21-.15-.33-.26-.15-.3-.08m39.06,0a1,1,0,0,0,.74.72.4.4,0,0,1,.32.25c.05.13.17.25.26.25.34,0,.17-.26-.45-.67a5.21,5.21,0,0,1-.75-.58c-.07-.11-.12-.1-.12,0m-26.26.64a1.17,1.17,0,0,0,.52.24.71.71,0,0,1,.41.26c.11.14.25.21.3.16s-.72-.92-1.13-.91-.42,0-.1.25m27.92.77c0,.11.05.15.1.09s.29.1.5.33.4.37.4.29c0-.38-1-1.08-1-.71m7.45.58c-.18.18-.13,1.23,0,1.23s.17-.3.17-.67c0-.68,0-.75-.22-.56m-32.11.79c.23.22.48.35.56.31s0-.22-.25-.39c-.57-.45-.8-.39-.31.08m-13.34.16c0,.16.68.82.77.74s-.12-.25-.35-.46-.42-.34-.42-.28m45.22,1.94c0,.6,0,.84.07.55a5,5,0,0,0,0-1.09c0-.3-.07-.05-.07.54m-3.28-.46c.24.39.64.8.77.8a1.35,1.35,0,0,1,.5.33,1.22,1.22,0,0,0,.62.33c.18,0,.14-.1-.16-.33s-.53-.44-.68-.58a.88.88,0,0,0-.46-.25.17.17,0,0,1-.19-.15c0-.08-.12-.2-.26-.25s-.22,0-.14.1m19.79.37a7.81,7.81,0,0,1-.65.57c-.25.2-.41.41-.36.47s.22,0,.36-.11.26-.16.26-.1.15,0,.34-.22a.75.75,0,0,0,.3-.57c0-.2-.1-.2-.25,0m-44.48.43a1,1,0,0,0,.48.33c.09,0,0-.15-.19-.33a1.44,1.44,0,0,0-.47-.34c-.07,0,0,.15.18.34m-15.08.12c0,.29.47.72.58.55s0-.17-.07-.17-.18-.12-.18-.25-.07-.25-.16-.25-.17,0-.17.12m.78.66c0,.07.06.31.23.53s.32.37.32.06-.41-.81-.55-.59m289.38,1.3c.07.18.25.62.4,1a3.33,3.33,0,0,1,.27.88,6.73,6.73,0,0,0,.48,1.29c.26.57.75,1.86,1.08,2.87a16.63,16.63,0,0,0,1.29,3.49,1,1,0,0,1,.15.57,1.25,1.25,0,0,0,.22.68,7,7,0,0,1,.59,1.46,5.52,5.52,0,0,0,.53,1.31.55.55,0,0,1,.16.43,3,3,0,0,0,.23.87c.32.71.87,2.21,1.12,3a2,2,0,0,0,.38.79c.5.32-.66.38-7.24.36s-7.69-.06-7.2-.37a1.58,1.58,0,0,0,.31-.82c.06-.39.17-.71.25-.71s.18-.33.24-.75.18-.75.25-.75.19-.24.25-.54a2.62,2.62,0,0,1,.25-.71,2.38,2.38,0,0,0,.24-.7c.06-.3.18-.55.26-.55s.19-.33.25-.75.18-.75.27-.75.14-.13.14-.29a5.12,5.12,0,0,1,.49-1.24,8.21,8.21,0,0,0,.6-1.46c.06-.28.18-.51.28-.51s.14-.22.1-.5,0-.5.06-.5.14-.11.14-.25.07-.25.16-.25.2-.33.26-.75.18-.75.25-.75.19-.33.25-.75.18-.75.27-.75.14-.1.14-.23a.72.72,0,0,1,.25-.43.84.84,0,0,0,.25-.57,2.19,2.19,0,0,1,.23-.78,4.7,4.7,0,0,0,.34-1c.06-.34.19-.61.27-.61s.17-.17.18-.38,0-.28.09-.12.14.4.22.58m-232.89,1c-.55.6-.41.75.17.17.24-.25.4-.49.35-.54s-.28.12-.52.37m-38-.12c0,.08.07.19.28.24.47.13.52.06.13-.19-.18-.1-.36-.13-.41-.05M2,31.67c-.05.18,0,.37.07.42s.15-.1.15-.33c0-.51-.1-.55-.22-.09m41.17,1c.25.26.49.45.53.42s-.7-.9-.87-.9.08.21.34.48m35.28.66c.35.4.43.43.43.2s-.16-.25-.37-.36c-.38-.2-.38-.2-.06.16m1.27,1.82a.62.62,0,0,0,.18.32,2.86,2.86,0,0,1,.31,1.07l.13.9,0-1c0-.88,0-1.06-.31-1.21s-.33-.12-.33,0M29.33,36.5c0,.09.12.17.25.17s.25-.08.25-.17-.11-.17-.25-.17-.25.08-.25.17m.67.34a2.76,2.76,0,0,0,.67.87,3.5,3.5,0,0,1,.66.79c0,.07.11.17.25.22s.16-.34-.2-.69a.77.77,0,0,1-.21-.47c0-.32-.33-.65-.8-.8-.24-.07-.37,0-.37.08M49.74,37c-.11.18.31.66.58.66s.22-.13-.15-.5c-.18-.18-.37-.25-.43-.16m30.59,2.15a2.28,2.28,0,0,0,.17,1.09c.11.06.17-.3.17-1s-.08-1.09-.17-1.09-.17.44-.17,1M2.67,41.25c-.6.61-.58,1,0,.49.38-.35.72-.9.61-1s-.32.19-.62.51M55,40.89a1,1,0,0,0,.49.16c.12-.1-.37-.38-.66-.38-.13,0-.06.1.17.22M33.67,41a5.05,5.05,0,0,0,1.24,1.36c.19,0,.06-.19-.58-.85-.36-.38-.66-.61-.66-.51m46.66.86c0,.37.08.67.17.67s.17-.3.17-.67-.08-.66-.17-.66-.17.3-.17.66m-79.21.36C.68,42.52.5,43,.83,43c.1,0,.17-.09.17-.21s.23-.31.5-.43S2,42.07,2,42c0-.26-.39-.17-.88.2m-.19,4a9.57,9.57,0,0,0,.06,3,1.85,1.85,0,0,1,0,1.56c-.13.12-.13.22,0,.29A.21.21,0,0,0,1.25,51a3,3,0,0,0,.12-1.56,19.67,19.67,0,0,1-.18-3c0-1.64-.07-3-.1-3S1,44.61.93,46.18M36.33,44c0,.06.23.25.5.41s.5.22.5.13-.22-.27-.5-.41-.5-.2-.5-.13m24,.42a.47.47,0,0,0,.45.13c.19-.07.17-.12-.08-.21-.5-.2-.61-.17-.37.08m.87.61c-.05.09,0,.28.17.42.31.31.34.59.05.53s-.36.67-.07,1a.92.92,0,0,0,.42.25.28.28,0,0,0,.18-.51c-.18-.11-.16-.21.09-.49s.31-.35-.21-.83c-.29-.27-.58-.41-.63-.33m18.84.37a.82.82,0,0,1-.55.43c-.31,0-.35.09-.19.29s.39.2.87.12c1.1-.17,1.12-.07,1.12,4.38a21.33,21.33,0,0,0,.17,4c.11.07.17-1.29.16-3.95,0-4.44-.08-4.8-1-4.8-.34,0-.4-.06-.33-.41.1-.52,0-.54-.21,0m-41.33.12c-.17.28.09,1.17.33,1.17a.31.31,0,0,1,.29.2c.05.15.1.15.19,0s0-.2,0-.2-.22-.27-.28-.59c-.12-.62-.32-.86-.49-.58M63,47c0,.09.15.17.32.17a.57.57,0,0,0,.43-.17c.06-.1-.08-.17-.32-.17S63,46.91,63,47m2.07.42c.26.14.52.21.57.16s-.33-.41-.72-.41-.24,0,.15.25m2.6,1.81c0,.26.46.7.6.56S68,49,67.79,49s-.12.1-.12.23m-25,1a2,2,0,0,0,.33.47c.18.21.33.31.33.21a1,1,0,0,0-.33-.46c-.18-.17-.33-.27-.33-.22M18.16,51.53c.18.2.38.32.43.27s-.39-.63-.61-.63,0,.16.18.36m-17,0a1.19,1.19,0,0,0,.75,1.17c.66.16.69,0,.1-.6a2.72,2.72,0,0,1-.52-.67.16.16,0,0,0-.17-.14c-.09,0-.16.11-.16.24M44,51.8c0,.19,1,.92,1.12.81s-.79-.93-1-.94a.13.13,0,0,0-.12.13M2.78,53a2.18,2.18,0,0,1,.27.82c.06.47.07.44.05-.15s-.1-.76-.27-.82-.21,0-.05.15m43.05.3a.75.75,0,0,0,.25.36.67.67,0,0,1,.25.44c0,.13.08.2.17.14.38-.24.19-1.08-.25-1.08-.23,0-.42.06-.42.14m25.34,1.27c0,.14.07.25.16.25s.17-.11.17-.25-.07-.25-.17-.25-.16.12-.16.25m10.27.7c-.18.18-.11,18.2.07,18.31s.16-3.35.16-9.16c0-5.1,0-9.26-.06-9.26a.39.39,0,0,0-.17.11M3,55.46a10.32,10.32,0,0,0,0,3.21c.11,0,.18-.63.18-1.67,0-1.56,0-1.85-.22-1.54M48.17,56c0,.29.28.78.38.66a1,1,0,0,0-.16-.49c-.12-.23-.22-.31-.22-.17m-35.4,1c-.17.64-.11.73.15.23s.3-.6.1-.6-.19.16-.25.37m36.91.77c0,.25.65,1,.89,1,.08,0,0-.17-.27-.38a2.57,2.57,0,0,1-.51-.63c-.08-.19-.1-.19-.11,0m1.1,1.13c-.13.13,0,.56.24.56s.19-.45,0-.57a.19.19,0,0,0-.24,0m-48.09.57a1.46,1.46,0,0,1-.22.79c-.11.11-.16.2-.1.2s-.17.29-.51.63a2.79,2.79,0,0,0-1,2.66c0,1.9.28,2.48.3.68a4.32,4.32,0,0,1,.18-1.55.86.86,0,0,0,.17-.59.84.84,0,0,1,.4-.75,2.3,2.3,0,0,0,.91-2.08l-.1-.58,0,.59m48.64.25c0,.16.89.91,1,.83s-.66-.92-.84-.92-.13,0-.13.09m-23.75.89c.28.26.53.45.57.41s-.68-.89-.89-.89,0,.21.32.48m24.92.14c0,.37.33.61.33.25s-.07-.37-.16-.37-.17,0-.17.12M68.77,62.5a1.62,1.62,0,0,0-.22.86c.06.15.09.13.1-.07s.08-.29.16-.29a1.78,1.78,0,0,0,.32-1.1,1.94,1.94,0,0,0-.36.6m-14.94-.08a1.83,1.83,0,0,0,.71.75c.17,0-.41-.82-.58-.83s-.13,0-.13.08m-23.22,1a.75.75,0,0,0,.49.34c.43.11.52.32.19.45-.11,0-.05.07.15.06s.33-.06.18-.4-.28-.36-.4-.31-.22,0-.22-.06-.11-.18-.24-.23-.21,0-.15.15M68.17,64a1,1,0,0,1-.27.59c-.15.15-.22.32-.15.39s.16,0,.2-.1a2.11,2.11,0,0,1,.31-.44c.28-.28.32-.76.07-.76-.09,0-.16.14-.16.32M13.09,64c-.05.09,0,.19.16.24s.48-.1.3-.28a.28.28,0,0,0-.46,0m42.24,0c0,.24.34.56.75.72s.23,0-.15-.39c-.54-.56-.6-.59-.6-.33M28.2,65.33c-.49.32-.65.51-.51.6s.24,0,.27-.07.25-.19.46-.19a.68.68,0,0,0,.57-.33c.36-.65.19-.66-.79,0M57.58,66c0,.09.06.17.25.17s.31-.08.25-.17a.35.35,0,0,0-.25-.17.37.37,0,0,0-.25.17m9.09.29c0,.07-.34.1-.75.07-.6,0-1.61.36-1.22.49a2.82,2.82,0,0,0,1.76-.15c.53-.27.71-.53.37-.53-.09,0-.16,0-.16.12M1,67.17C.79,68.45.8,69.46,1,69.58a3,3,0,0,1,.17,1.26c0,.64.07,1.16.16,1.16s.12-1.21-.12-4.17l-.13-1.58L1,67.17m62.29-.67c-.06.1.14.17.49.17s.59-.08.59-.17-.22-.17-.49-.17a.86.86,0,0,0-.59.17M290.5,73.42v6.75h23c20.81,0,23,0,23.09-.27s.1-2.73.1-5.75V68.67h.59c.82,0,1.1-.34,1-1.21l-.05-.71-23.87,0-23.88,0v6.76M16.83,67c0,.2.48.63.71.64s.11-.25-.29-.54-.42-.23-.42-.1m6.59,0c-.06.09,0,.17.24.17S24,67.09,24,67s-.11-.17-.24-.17a.43.43,0,0,0-.34.17m-1.5.5c-.06.09,0,.17.24.17s.34-.08.34-.17-.11-.17-.24-.17a.43.43,0,0,0-.34.17m312.75,5.92v4.75H292.33v-9.5h42.34v4.75m-40.15-4a1.46,1.46,0,0,0,.15,1.29,2.76,2.76,0,0,1,.25.75,2.5,2.5,0,0,0,.24.75,3.34,3.34,0,0,1,.23,1,12,12,0,0,0,.79,2.83,1.66,1.66,0,0,1,.15.62c0,1.4,2.39,1.29,2.6-.12.06-.39.17-.71.24-.71s.19-.35.26-.79a3.05,3.05,0,0,1,.26-1,3.22,3.22,0,0,0,.25-1,3.65,3.65,0,0,1,.23-1,2.25,2.25,0,0,0,.25-.79,1.4,1.4,0,0,1,.27-.72,1.35,1.35,0,0,0,.14-.75v-.65h-1c-1.08,0-1.18.11-1.52,1.75-.51,2.4-.6,2.75-.7,2.75s-.31-.63-.31-1.13c0-.21-.07-.37-.16-.37s-.2-.45-.26-1-.18-1-.26-1-.16-.21-.19-.46c-.07-.6-1.65-.8-2-.25m10.06.28a3.29,3.29,0,0,0-.25,1.08c0,.27-.07.54-.16.59a2.12,2.12,0,0,0-.27.93c-.06.45-.17.83-.24.83s-.18.32-.25.71a3,3,0,0,1-.24.87,2.9,2.9,0,0,0-.25.87,1.73,1.73,0,0,1-.27.81c-.61.38.12,1.22,1.07,1.23s1-.23,1.18-1.22l.12-.79,1,0c.8,0,.95.1,1,.38.18,1.1.71,1.62,1.58,1.56l.71-.06.05-1c0-.52,0-1-.1-1s-.21-.38-.27-.83a2.13,2.13,0,0,0-.25-.91,2.44,2.44,0,0,1-.25-.93c-.06-.46-.17-.83-.25-.83s-.18-.35-.24-.78a2.8,2.8,0,0,0-.26-1,1.65,1.65,0,0,1-.21-.68l-.05-.5-1.3,0-1.3,0-.24.59m8.09-.24c-.33.61-.21,7.69.13,7.94a6.37,6.37,0,0,0,2.41.22c2.52,0,2.85-.15,2.76-1.27l-.05-.64-1.71,0-1.71,0V69.17h-.83c-.65,0-.86.07-1,.33m6.53-.13c-.28.28,0,1.56.75,3.46a7.36,7.36,0,0,1,.36,1.17c.89,3.18,1.21,3.71,2.23,3.64.69-.06.71-.08.86-.76.08-.39.2-.71.27-.71s.18-.34.24-.75a1.91,1.91,0,0,1,.26-.84,2.05,2.05,0,0,0,.26-.92c.06-.45.17-.83.24-.83s.19-.32.25-.71a1.76,1.76,0,0,1,.28-.8,2.79,2.79,0,0,0,.25-1.14l.1-1-1,0c-1.19.06-1.26.19-2,3.55-.17.8-.25,1-.26.63s-.08-.55-.16-.55-.2-.39-.26-.87a3.91,3.91,0,0,0-.25-1,2.51,2.51,0,0,1-.23-.82,1.46,1.46,0,0,0-2.25-.73m9.08-.09a22.15,22.15,0,0,0-.11,3v2.89h3.63l.11-.44c.26-1,0-1.39-1.05-1.43-.87,0-.88,0-.21-.09.93-.08,1.22-.37,1.15-1.17l-.05-.62-.87,0c-1.28-.08-1.24-.54,0-.54,1,0,1.18-.15,1-1.08l-.11-.58H330.1a8.57,8.57,0,0,0-1.82.11M1.17,72.49c0,.19.07.34.16.34s.17-.11.17-.24a.45.45,0,0,0-.17-.34c-.09-.06-.16,0-.16.24m304.92.33a.2.2,0,0,0,.07.26c.34.21.18.59-.24.59-.23,0-.42-.08-.42-.17a.18.18,0,0,1,.17-.17c.09,0,.16-.15.16-.33s.08-.33.18-.33.13.07.08.15M1.17,73.71c0,.41,0,.48.16.29s.21-.83,0-.83-.16.24-.16.54m80.16,1a1.44,1.44,0,0,0,.17.84c.1.07.17-.22.17-.74S81.59,74,81.5,74s-.17.33-.17.74M1,74.44A4.18,4.18,0,0,0,1,76.5a3.91,3.91,0,0,0,.21-2,.17.17,0,0,0-.24,0m80.38,3.23c0,1,.07,1.66.17,1.66s.17-.66.17-1.66S81.6,76,81.5,76s-.17.67-.17,1.67M.83,77.14c0,.52.54,1.13.84.94.13-.08.08-.22-.16-.44A1.09,1.09,0,0,1,1.17,77c0-.18-.08-.32-.17-.32s-.17.21-.17.47m74.38.64a1.42,1.42,0,0,0,.58,0c.16,0,0-.07-.29-.07s-.45,0-.29.07m-2.3.23c-.31.13-.31.13,0,.14.52,0,1.11,1.18.6,1.18a.18.18,0,0,0-.17.17c0,.24.32.2.6-.07.49-.49-.36-1.67-1-1.42m-70.74.14c0,.1.25.18.57.18a1.05,1.05,0,0,1,.68.17,2.29,2.29,0,0,0,1.65,0c0-.08-.37-.19-1-.24a11.92,11.92,0,0,1-1.5-.21c-.29-.07-.45,0-.45.08m13.72.52c.66.57.73.58,1.38.25a2.55,2.55,0,0,1,1-.25c.3,0,.54-.07.54-.16,0-.25-.34-.29-1.47-.13-.72.09-1.13.08-1.25,0a.82.82,0,0,0-.48-.17c-.24,0-.18.11.26.5m3.28-.34c0,.51,2.16.71,2.76.26.29-.22.29-.25,0-.25s-.29.07-.29.16c0,.25-.93.2-1.61-.08s-.89-.31-.89-.09m4.55,0a1.86,1.86,0,0,0-1.06.31c-.28.33,1.64.14,2-.2.14-.13.17-.22.08-.2s-.54.06-1,.09m1.48.07a.52.52,0,0,0,.38.28c.18,0,.26,0,.22-.17a.52.52,0,0,0-.38-.28c-.18,0-.26,0-.22.17m1.3-.07a.87.87,0,0,1,.55.31c.15.27,2.95.35,2.95.08a3.29,3.29,0,0,0-1.38-.24c-.75,0-1.63-.11-1.95-.15s-.4,0-.17,0m51.44.13a2.68,2.68,0,0,0,1.66.84,1.36,1.36,0,0,1,.66.26.21.21,0,0,0,.27,0c.22-.14-.54-.59-1.73-1-.74-.28-.93-.3-.86-.11m-70,0a15,15,0,0,1-1.5.21c-1,.11-1.14.14-.54.16a1.57,1.57,0,0,1,.9.2c.06.11.18.11.3,0a2.82,2.82,0,0,1,1-.27c.44-.06.79-.18.79-.27s-.59-.19-.93,0m1.85.06a1.71,1.71,0,0,0,.92.17,1.66,1.66,0,0,0,.91-.17c.07-.1-.28-.17-.91-.17s-1,.07-.92.17m2.67.11c.35.25.62.27,1.39.12s.57-.38-.59-.37c-1,0-1.07,0-.8.25m19.79,0c-.21.17-.38.36-.38.43s.11,0,.25-.08a.72.72,0,0,1,.62-.1c.27.08.31.06.15,0a.26.26,0,0,1-.11-.34c.18-.29-.11-.21-.53.14M30.67,79c0,.17.5.4.62.28s0-.15,0-.25-.59-.24-.59,0m30.77,0c-.19.2-.12.39.14.39a.25.25,0,0,0,.25-.25c0-.26-.19-.33-.39-.14M51.67,80c0,.09.26.17.58.17s.58-.08.58-.17-.26-.17-.58-.17-.58.08-.58.17M71.5,80c0,.16.43.14.61,0s0-.12-.25-.12-.36.07-.36.16m-26,.48c-1.11.63-1.51,1-1.24,1.08s.41-.09.62-.31a1.16,1.16,0,0,1,.6-.41.2.2,0,0,0,.22-.17c0-.1.07-.14.15-.08a.19.19,0,0,0,.26-.08,1.05,1.05,0,0,1,.68-.17c.32,0,.57-.07.57-.17,0-.3-1.11-.11-1.86.31m7.7-.3c0,.09.56.16,1.34.16s1.3-.06,1.24-.16A3.09,3.09,0,0,0,54.41,80c-.72,0-1.24.07-1.24.17m15.5,0c0,.09.37.16.83.16s.83-.07.83-.16S70,80,69.5,80s-.83.07-.83.17m-31.76.33c-.22.25-.25.39-.12.52s.24.07.39-.21a1.7,1.7,0,0,1,.39-.52c.11-.07.08-.12-.09-.12a1,1,0,0,0-.57.33m4.63.5c-.43.39-.85.43-1,.08S40,80.74,40,81c0,.45,1.17.73,1.49.35.18-.2.36-.36.41-.35s.16-.16.06-.25-.23.08-.42.26m-7.37.1c0,.17.46.55.55.46s0-.2-.13-.33-.42-.3-.42-.13m1.12.69a2.12,2.12,0,0,0,.67,0c.16,0,0-.07-.38-.07s-.49,0-.29.08" transform="translate(0.01 -0.17)"/></g></svg>