<svg xmlns="http://www.w3.org/2000/svg" viewBox="0 0 159.07 120.65"><defs><style>.b5570ae9-24a2-49fb-a6d8-3dd26850b8d3{fill:none;stroke:#ff4800;stroke-miterlimit:10;stroke-width:2px;}.f834f8f1-9fcd-430b-8091-5537d5923a78{fill:#fbfbfb;}</style></defs><g id="a01e5192-34da-48f0-9275-23bf0b18f37e" data-name="Ebene 2"><g id="e570a1cd-c09f-4b57-ace3-d6bc6c53fe6b" data-name="Ebene 10"><path class="b5570ae9-24a2-49fb-a6d8-3dd26850b8d3" d="M102.83,24.66H61.07a3.5,3.5,0,0,0-3.5,3.5v70a3.5,3.5,0,0,0,3.5,3.5h93.5a3.49,3.49,0,0,0,3.5-3.5v-70a3.5,3.5,0,0,0-3.5-3.5h-9.28"/><rect class="b5570ae9-24a2-49fb-a6d8-3dd26850b8d3" x="101.48" y="101.63" width="11.71" height="11.84"/><path class="b5570ae9-24a2-49fb-a6d8-3dd26850b8d3" d="M92.91,113.86h29.52A5.18,5.18,0,0,1,127.6,119v.61a0,0,0,0,1,0,0H88a0,0,0,0,1,0,0v-.85A4.94,4.94,0,0,1,92.91,113.86Z"/><line class="b5570ae9-24a2-49fb-a6d8-3dd26850b8d3" x1="58.16" y1="91.08" x2="158.14" y2="91.08"/><line class="b5570ae9-24a2-49fb-a6d8-3dd26850b8d3" x1="74.63" y1="96.2" x2="78.42" y2="96.2"/><line class="b5570ae9-24a2-49fb-a6d8-3dd26850b8d3" x1="64.1" y1="96.2" x2="72.74" y2="96.2"/><path class="b5570ae9-24a2-49fb-a6d8-3dd26850b8d3" d="M123.22,25.68a7.63,7.63,0,0,1,7.6,7.66"/><path class="b5570ae9-24a2-49fb-a6d8-3dd26850b8d3" d="M135.21,52.5l-5.52,2.17,0-.11-2.18-5.51A16.73,16.73,0,0,0,133,46.84l2.19,5.54Z"/><path class="b5570ae9-24a2-49fb-a6d8-3dd26850b8d3" d="M143.6,78.93l-1.68.66a4,4,0,0,1-5.21-2.25l-3.49-8.82-3.52-8.9-1.61-4.07a.36.36,0,0,1,.2-.46l1.36-.53,0,.11,5.52-2.17,0-.12,1.28-.51a.36.36,0,0,1,.46.2l3,7.55,3.51,8.9,2.25,5.67A3.65,3.65,0,0,1,143.6,78.93Z"/><polygon class="b5570ae9-24a2-49fb-a6d8-3dd26850b8d3" points="135.21 52.5 129.69 54.67 129.65 54.56 135.17 52.38 135.21 52.5"/><path class="b5570ae9-24a2-49fb-a6d8-3dd26850b8d3" d="M124.1,15.53a17,17,0,0,0-3.59.39,16.51,16.51,0,0,0-4.91,1.94c-.23.13-.45.26-.67.41a17,17,0,0,0,0,28.38c.36.24.74.47,1.13.68a16.76,16.76,0,0,0,11.41,1.72A16.54,16.54,0,0,0,133,46.83a16.95,16.95,0,0,0-8.88-31.3Zm0,28.63a11.53,11.53,0,0,1-3.59-.57,11.33,11.33,0,0,1-4.45-2.69,12.14,12.14,0,0,1-1.13-1.25,11.72,11.72,0,0,1,0-14.37,11.64,11.64,0,0,1,9.17-4.52,11.7,11.7,0,0,1,0,23.4Z"/><line class="b5570ae9-24a2-49fb-a6d8-3dd26850b8d3" x1="70.41" y1="78.14" x2="70.41" y2="40.14"/><line class="b5570ae9-24a2-49fb-a6d8-3dd26850b8d3" x1="77.41" y1="78.14" x2="77.41" y2="47.14"/><line class="b5570ae9-24a2-49fb-a6d8-3dd26850b8d3" x1="68.91" y1="82.64" x2="126.91" y2="82.64"/><line class="b5570ae9-24a2-49fb-a6d8-3dd26850b8d3" x1="84.41" y1="78.14" x2="84.41" y2="55.14"/><line class="b5570ae9-24a2-49fb-a6d8-3dd26850b8d3" x1="91.41" y1="78.14" x2="91.41" y2="51.14"/><line class="b5570ae9-24a2-49fb-a6d8-3dd26850b8d3" x1="98.41" y1="78.14" x2="98.41" y2="45.14"/><line class="b5570ae9-24a2-49fb-a6d8-3dd26850b8d3" x1="105.41" y1="78.14" x2="105.41" y2="58.14"/><line class="b5570ae9-24a2-49fb-a6d8-3dd26850b8d3" x1="112.41" y1="78.14" x2="112.41" y2="53.14"/><line class="b5570ae9-24a2-49fb-a6d8-3dd26850b8d3" x1="119.41" y1="78.14" x2="119.41" y2="59.14"/><line class="b5570ae9-24a2-49fb-a6d8-3dd26850b8d3" x1="125.41" y1="78.14" x2="125.41" y2="68.14"/></g><g id="e9964f73-87a5-4c65-a7bc-d4c40d1f2865" data-name="Ebene 2"><circle class="b5570ae9-24a2-49fb-a6d8-3dd26850b8d3" cx="23.5" cy="23.5" r="22.5"/></g><g id="ba9e90f0-0089-4fa9-afa7-c372eb7ca3cd" data-name="Ebene 7"><path class="f834f8f1-9fcd-430b-8091-5537d5923a78" d="M21.36,16.21v3.57H19v-4a2.44,2.44,0,0,1,2.76-2.76h2.94a2.44,2.44,0,0,1,2.77,2.76v6.27c0,1.05-.43,1.61-1.3,1.68a1.45,1.45,0,0,1,1.3,1.64v6.65a2.45,2.45,0,0,1-2.77,2.77H21.74A2.45,2.45,0,0,1,19,32.06V28.14h2.38v3.54a1.28,1.28,0,0,0,.21.89,1.35,1.35,0,0,0,.87.19H24a1.37,1.37,0,0,0,.88-.19,1.28,1.28,0,0,0,.21-.89V25.94a1.3,1.3,0,0,0-.21-.9,1.44,1.44,0,0,0-.88-.19H21.43v-2.1H24a1.37,1.37,0,0,0,.88-.19,1.28,1.28,0,0,0,.21-.89V16.21a1.3,1.3,0,0,0-.21-.9,1.44,1.44,0,0,0-.88-.19H22.44a1.42,1.42,0,0,0-.87.19A1.3,1.3,0,0,0,21.36,16.21Z"/></g></g></svg>