<svg xmlns="http://www.w3.org/2000/svg" viewBox="0 0 102.5 106.11"><defs><style>.a14e6146-665a-4fba-98c9-b79e3f0c0e29{fill:none;stroke:#ff4800;stroke-miterlimit:10;stroke-width:2px;}</style></defs><g id="bb7d96cd-fa63-4273-a6fe-df4b5258698b" data-name="Ebene 2"><g id="e0e4294e-0027-44c3-89c7-3eaa5312b513" data-name="Ebene 10"><path class="a14e6146-665a-4fba-98c9-b79e3f0c0e29" d="M46.25,10.13H4.5A3.5,3.5,0,0,0,1,13.63v70a3.5,3.5,0,0,0,3.5,3.5H98a3.5,3.5,0,0,0,3.5-3.5v-70a3.5,3.5,0,0,0-3.5-3.5H88.71"/><rect class="a14e6146-665a-4fba-98c9-b79e3f0c0e29" x="44.9" y="87.1" width="11.71" height="11.84"/><path class="a14e6146-665a-4fba-98c9-b79e3f0c0e29" d="M36.33,99.33H65.85A5.18,5.18,0,0,1,71,104.51v.61a0,0,0,0,1,0,0H31.39a0,0,0,0,1,0,0v-.85A4.94,4.94,0,0,1,36.33,99.33Z"/><line class="a14e6146-665a-4fba-98c9-b79e3f0c0e29" x1="1.59" y1="76.55" x2="101.57" y2="76.55"/><line class="a14e6146-665a-4fba-98c9-b79e3f0c0e29" x1="18.06" y1="81.66" x2="21.85" y2="81.66"/><line class="a14e6146-665a-4fba-98c9-b79e3f0c0e29" x1="7.53" y1="81.66" x2="16.17" y2="81.66"/><path class="a14e6146-665a-4fba-98c9-b79e3f0c0e29" d="M66.65,11.15a7.63,7.63,0,0,1,7.6,7.65"/><path class="a14e6146-665a-4fba-98c9-b79e3f0c0e29" d="M78.64,38l-5.52,2.18L73.07,40,70.9,34.51a16.55,16.55,0,0,0,5.5-2.21l2.2,5.54Z"/><path class="a14e6146-665a-4fba-98c9-b79e3f0c0e29" d="M87,64.4l-1.69.66a4,4,0,0,1-5.21-2.25L76.65,54l-3.52-8.9L71.52,41a.35.35,0,0,1,.2-.45L73.07,40l.05.11L78.64,38l0-.12,1.27-.5a.36.36,0,0,1,.47.2l3,7.55L86.84,54l2.24,5.67A3.65,3.65,0,0,1,87,64.4Z"/><polygon class="a14e6146-665a-4fba-98c9-b79e3f0c0e29" points="78.64 37.96 73.12 40.14 73.07 40.03 78.6 37.84 78.64 37.96"/><path class="a14e6146-665a-4fba-98c9-b79e3f0c0e29" d="M67.53,1A16.68,16.68,0,0,0,59,3.32c-.23.14-.45.27-.67.42a17,17,0,0,0,0,28.38c.36.24.74.46,1.12.68a16.81,16.81,0,0,0,11.41,1.71,16.66,16.66,0,0,0,5.52-2.21A16.95,16.95,0,0,0,67.53,1Zm0,28.63a11.53,11.53,0,0,1-9.17-4.52,11.71,11.71,0,0,1,0-14.36,11.2,11.2,0,0,1,1.12-1.26,11.64,11.64,0,0,1,8.05-3.26,11.7,11.7,0,0,1,0,23.4Z"/><line class="a14e6146-665a-4fba-98c9-b79e3f0c0e29" x1="13.84" y1="63.61" x2="13.84" y2="25.61"/><line class="a14e6146-665a-4fba-98c9-b79e3f0c0e29" x1="20.84" y1="63.61" x2="20.84" y2="32.61"/><line class="a14e6146-665a-4fba-98c9-b79e3f0c0e29" x1="12.34" y1="68.11" x2="70.34" y2="68.11"/><line class="a14e6146-665a-4fba-98c9-b79e3f0c0e29" x1="27.84" y1="63.61" x2="27.84" y2="40.61"/><line class="a14e6146-665a-4fba-98c9-b79e3f0c0e29" x1="34.84" y1="63.61" x2="34.84" y2="36.61"/><line class="a14e6146-665a-4fba-98c9-b79e3f0c0e29" x1="41.84" y1="63.61" x2="41.84" y2="30.61"/><line class="a14e6146-665a-4fba-98c9-b79e3f0c0e29" x1="48.84" y1="63.61" x2="48.84" y2="43.61"/><line class="a14e6146-665a-4fba-98c9-b79e3f0c0e29" x1="55.84" y1="63.61" x2="55.84" y2="38.61"/><line class="a14e6146-665a-4fba-98c9-b79e3f0c0e29" x1="62.84" y1="63.61" x2="62.84" y2="44.61"/><line class="a14e6146-665a-4fba-98c9-b79e3f0c0e29" x1="68.84" y1="63.61" x2="68.84" y2="53.61"/></g></g></svg>