<svg xmlns="http://www.w3.org/2000/svg" viewBox="0 0 18 18"><defs><style>.cls-1{fill:#ff4800;}</style></defs><g id="Ebene_2" data-name="Ebene 2"><g id="Ebene_1-2" data-name="Ebene 1"><path class="cls-1" d="M9,5.57A3.43,3.43,0,1,0,12.43,9,3.44,3.44,0,0,0,9,5.57ZM9,11a2,2,0,1,1,2-2A2,2,0,0,1,9,11ZM9,5.57A3.43,3.43,0,1,0,12.43,9,3.44,3.44,0,0,0,9,5.57ZM9,11a2,2,0,1,1,2-2A2,2,0,0,1,9,11ZM16,0H2A2,2,0,0,0,0,2V16a2,2,0,0,0,2,2H16a2,2,0,0,0,2-2V2A2,2,0,0,0,16,0ZM9,14.15A8.13,8.13,0,0,1,1.45,9a8.11,8.11,0,0,1,15.1,0A8.13,8.13,0,0,1,9,14.15ZM9,5.57A3.43,3.43,0,1,0,12.43,9,3.44,3.44,0,0,0,9,5.57ZM9,11a2,2,0,1,1,2-2A2,2,0,0,1,9,11Z"/><path class="cls-1" d="M9,6.94A2.06,2.06,0,1,0,11.06,9,2.06,2.06,0,0,0,9,6.94ZM9,11a2,2,0,1,1,2-2A2,2,0,0,1,9,11ZM9,6.94A2.06,2.06,0,1,0,11.06,9,2.06,2.06,0,0,0,9,6.94ZM9,11a2,2,0,1,1,2-2A2,2,0,0,1,9,11ZM9,6.94A2.06,2.06,0,1,0,11.06,9,2.06,2.06,0,0,0,9,6.94ZM9,11a2,2,0,1,1,2-2A2,2,0,0,1,9,11Z"/></g></g></svg>