<svg xmlns="http://www.w3.org/2000/svg" viewBox="0 0 152.09 107.22"><defs><style>.f69c4405-1d45-4cce-9191-308dca616818{fill:none;stroke:#ff4800;stroke-miterlimit:10;stroke-width:2px;}.ffa8de07-e202-4608-a90d-d18f8d729169{fill:#ff4800;}</style></defs><g id="eea90611-1242-4ab5-87d0-91e90a92a826" data-name="Ebene 2"><g id="f3f31803-d92d-4319-bda1-92756a8c75af" data-name="Ebene 45"><circle class="f69c4405-1d45-4cce-9191-308dca616818" cx="77.05" cy="37.5" r="12.5"/><polygon class="f69c4405-1d45-4cce-9191-308dca616818" points="82.13 22.88 81.36 25 73.19 25 72.4 23.3 61.99 1 71.93 1 76.75 11.34 82.13 22.88"/><polygon class="f69c4405-1d45-4cce-9191-308dca616818" points="90.1 1 82.13 22.88 76.75 11.34 80.51 1 90.1 1"/><path class="ffa8de07-e202-4608-a90d-d18f8d729169" d="M77.05,32.05l.63,0,.17,0c-.13,0-.13,0,0,0l.26,0c.2,0,.39.09.59.15l.33.11s.29.12.07,0a7,7,0,0,1,1,.57l.25.18,0,0,.13.11a5.48,5.48,0,0,1,.44.4c.14.14.27.28.4.43s.15.2,0,.06l.2.27a6.64,6.64,0,0,1,.57,1.05c-.1-.23,0,0,0,.07s.08.22.11.33a5.69,5.69,0,0,1,.16.59c0,.08,0,.17,0,.26s0-.16,0,.11,0,.45,0,.68a1.06,1.06,0,0,0,1,1,1.08,1.08,0,0,0,1-1A7.56,7.56,0,0,0,77.05,30a1.05,1.05,0,1,0,0,2.1Z"/><path class="f69c4405-1d45-4cce-9191-308dca616818" d="M26.2,42.88l-.28.37h-.16C10.8,43,11.58,29.08,13.17,21.5c.07-.35.15-.68.22-1l.84.34C21.83,24,34.57,31.39,26.2,42.88Z"/><path class="f69c4405-1d45-4cce-9191-308dca616818" d="M33,51.42l-.48,0-.1-.12c-9-11.08,3.33-19.07,10.75-22.57l1-.46c.08.27.16.54.23.83C46.4,36.61,47.93,50.48,33,51.42Z"/><path class="f69c4405-1d45-4cce-9191-308dca616818" d="M29.7,52.68c.06.14.11.29.16.43l-.1.12c-9.08,11-20.71,2.17-26.35-3.51L2.67,49c.26-.14.52-.29.8-.43C10.71,44.73,24.7,39.62,29.7,52.68Z"/><path class="f69c4405-1d45-4cce-9191-308dca616818" d="M39.48,65.05l.21.4-.08.14c-7.39,12.06-20.2,4.75-26.61-.18l-.85-.66.73-.52C19.5,59.55,32.61,52.73,39.48,65.05Z"/><path class="f69c4405-1d45-4cce-9191-308dca616818" d="M43,66.11l-.49.07-.1-.12C32.43,55.75,44,46.79,51,42.72l.94-.54q.15.39.3.81C55,50.29,57.79,64,43,66.11Z"/><path class="f69c4405-1d45-4cce-9191-308dca616818" d="M49,76.74c.1.12.19.25.28.38l-.07.14c-5.66,12.83-19.38,7.1-26.42,3l-.93-.56c.21-.2.42-.4.65-.6C28.44,73.65,40.51,65.34,49,76.74Z"/><path class="f69c4405-1d45-4cce-9191-308dca616818" d="M49.52,76.17l-.47-.12L49,75.91c-4.87-13.12,9.52-17.19,17.75-18.39l1.1-.15c0,.27,0,.56-.06.85C67.18,65.92,64,79.55,49.52,76.17Z"/><path class="f69c4405-1d45-4cce-9191-308dca616818" d="M86.66,106C57.13,92.4,38,62,25.21,42.41"/><path class="f69c4405-1d45-4cce-9191-308dca616818" d="M55.81,84.48l.32.21v.12C55.75,95.72,43.93,95,37.52,93.75l-.85-.18c.09-.19.19-.4.3-.61C39.72,87.45,46.16,78.24,55.81,84.48Z"/><path class="f69c4405-1d45-4cce-9191-308dca616818" d="M58.11,83.34l-.25-.12v-.09c-.9-8,7.76-8.52,12.55-8.21L71,75l-.15.47C69.48,79.7,65.8,87,58.11,83.34Z"/><path class="f69c4405-1d45-4cce-9191-308dca616818" d="M30.6,105.88a47,47,0,0,1-29.86-15"/><path class="f69c4405-1d45-4cce-9191-308dca616818" d="M19.25,92.36a30.87,30.87,0,0,1-9.14-7.91,31.26,31.26,0,0,1-4.89-9.11"/><path class="f69c4405-1d45-4cce-9191-308dca616818" d="M125.9,43.16c.08.12.18.24.27.37h.17c15-.23,14.18-14.16,12.58-21.74-.07-.35-.15-.68-.22-1l-.84.34C130.26,24.27,117.52,31.67,125.9,43.16Z"/><path class="f69c4405-1d45-4cce-9191-308dca616818" d="M119.08,51.7l.48,0,.1-.12c9-11.08-3.32-19.07-10.75-22.57l-1-.46c-.08.27-.15.54-.23.83C105.69,36.89,104.16,50.76,119.08,51.7Z"/><path class="f69c4405-1d45-4cce-9191-308dca616818" d="M122.39,53c-.06.14-.11.28-.16.43l.1.12c9.08,11,20.71,2.17,26.35-3.51l.74-.76c-.26-.14-.52-.29-.8-.43C141.38,45,127.39,39.89,122.39,53Z"/><path class="f69c4405-1d45-4cce-9191-308dca616818" d="M112.62,65.33c-.08.13-.15.27-.22.4l.08.13c7.39,12.07,20.2,4.76,26.62-.17l.84-.66-.72-.52C132.59,59.83,119.48,53,112.62,65.33Z"/><path class="f69c4405-1d45-4cce-9191-308dca616818" d="M109.08,66.39l.48.07.11-.12c10-10.31-1.54-19.27-8.61-23.35l-1-.53q-.15.39-.3.81C97.12,50.57,94.3,64.26,109.08,66.39Z"/><path class="f69c4405-1d45-4cce-9191-308dca616818" d="M103.08,77c-.1.12-.19.25-.28.38l.07.14c5.66,12.83,19.38,7.1,26.42,3l.93-.55-.65-.61C123.65,73.93,111.58,65.62,103.08,77Z"/><path class="f69c4405-1d45-4cce-9191-308dca616818" d="M102.58,76.45l.47-.12,0-.14C108,63.07,93.58,59,85.35,57.8l-1.09-.15c0,.27,0,.56,0,.85C84.91,66.2,88.07,79.83,102.58,76.45Z"/><path class="f69c4405-1d45-4cce-9191-308dca616818" d="M65.43,106.31C95,92.68,114.12,62.22,126.89,42.69"/><path class="f69c4405-1d45-4cce-9191-308dca616818" d="M96.28,84.76,96,85v.12C96.34,96,108.16,95.27,114.57,94l.86-.18c-.1-.19-.2-.4-.3-.61C112.37,87.73,105.93,78.52,96.28,84.76Z"/><path class="f69c4405-1d45-4cce-9191-308dca616818" d="M94,83.62l.25-.12v-.09c.91-8-7.76-8.52-12.55-8.21l-.64,0,.15.47C82.61,80,86.3,87.26,94,83.62Z"/><path class="f69c4405-1d45-4cce-9191-308dca616818" d="M121.49,106.16a47,47,0,0,0,29.87-15"/><path class="f69c4405-1d45-4cce-9191-308dca616818" d="M132.84,92.64A30.87,30.87,0,0,0,142,84.73a31.57,31.57,0,0,0,4.9-9.11"/></g></g></svg>