<svg xmlns="http://www.w3.org/2000/svg" viewBox="0 0 100.08 106.47"><defs><style>.a10b3d9e-c49a-4b61-be66-c973ab15ed02{fill:none;stroke:#ff4800;stroke-miterlimit:10;stroke-width:2px;}.b29c4748-4125-41fc-8635-6e8912d34ee4{fill:#ff4800;}</style></defs><g id="ba72efeb-250c-405f-acd5-268fad1fa924" data-name="Ebene 2"><g id="b77fc6eb-fdbe-4732-a0f4-73052c700d20" data-name="Ebene 11"><path class="a10b3d9e-c49a-4b61-be66-c973ab15ed02" d="M80.47,49.25A30.24,30.24,0,0,1,61.83,77.17H38.61A30.25,30.25,0,1,1,80.47,49.25Z"/><rect class="a10b3d9e-c49a-4b61-be66-c973ab15ed02" x="32.67" y="77.17" width="35.1" height="10.04"/><rect class="a10b3d9e-c49a-4b61-be66-c973ab15ed02" x="36.66" y="87.21" width="27.12" height="10.05"/><path class="a10b3d9e-c49a-4b61-be66-c973ab15ed02" d="M58.43,97.26a8.21,8.21,0,0,1-16.42,0Z"/><path class="b29c4748-4125-41fc-8635-6e8912d34ee4" d="M50.32,1.09v9a1.13,1.13,0,0,0,2.25,0v-9a1.13,1.13,0,0,0-2.25,0Z"/><path class="b29c4748-4125-41fc-8635-6e8912d34ee4" d="M89,49.21H99A1.13,1.13,0,0,0,99,47H89a1.13,1.13,0,0,0,0,2.25Z"/><path class="b29c4748-4125-41fc-8635-6e8912d34ee4" d="M1.09,49.21h10a1.13,1.13,0,0,0,0-2.25h-10a1.13,1.13,0,0,0,0,2.25Z"/><path class="b29c4748-4125-41fc-8635-6e8912d34ee4" d="M84,13.45l-6.13,6.13-.87.87A1.12,1.12,0,0,0,78.59,22l6.12-6.12.88-.88A1.12,1.12,0,1,0,84,13.45Z"/><path class="b29c4748-4125-41fc-8635-6e8912d34ee4" d="M13.21,16.29l6.13,6.13.87.87A1.12,1.12,0,0,0,21.8,21.7l-6.12-6.13-.88-.87a1.13,1.13,0,0,0-1.59,0,1.15,1.15,0,0,0,0,1.59Z"/><path class="b29c4748-4125-41fc-8635-6e8912d34ee4" d="M54.6,28.33A21.59,21.59,0,0,1,70.16,42.16c.42,1.21,2.36.69,1.93-.53a23.62,23.62,0,0,0-17-15.23c-1.25-.29-1.79,1.64-.53,1.93Z"/><circle class="b29c4748-4125-41fc-8635-6e8912d34ee4" cx="72.29" cy="46.72" r="1.25"/><path class="a10b3d9e-c49a-4b61-be66-c973ab15ed02" d="M46.33,77.17V58.4C46.33,54,43,53,40.72,54.11,38.78,55,37.94,58,37.94,61s1.68,5,4,5C46.33,66,47.17,66,51.37,66"/><path class="a10b3d9e-c49a-4b61-be66-c973ab15ed02" d="M53,76.91V58.4C53,54,56.4,53,58.66,54.11,60.6,55,61.44,58,61.44,61s-1.68,5-4,5C53,66,52.21,66,48,66"/></g></g></svg>