<svg xmlns="http://www.w3.org/2000/svg" viewBox="0 0 703.62 88.26"><defs><style>.fde0abfe-fc76-4405-9098-aa1e626ba31a{fill:#ff4800;}.a84d8eff-92c9-487a-a5a3-bfa38159da99{fill:#fbfbfb;}</style></defs><g id="b25aacbb-2467-423b-a887-899fad6ea793" data-name="Ebene 2"><g id="bc6a1965-acae-44c8-8f7d-c22fabac49c0" data-name="Ebene 1"><path class="fde0abfe-fc76-4405-9098-aa1e626ba31a" d="M0,.94H14.66V87.32H0Z"/><path class="fde0abfe-fc76-4405-9098-aa1e626ba31a" d="M25.2.94H43.85l6.44,44.52h.28L58,.94H75.66V87.32H63.12V34.64H62.9L55,87.32H46.3L38,34.64h-.17V87.32H25.2Z"/><path class="fde0abfe-fc76-4405-9098-aa1e626ba31a" d="M86.21.94h17.88c14.43,0,19.15,6.78,19.15,19.15V36.14c0,12.38-4.72,19.15-19.15,19.15h-3.22v32H86.21Zm17.88,42.47c3.49,0,4.44-3.16,4.44-6.16V19.54c0-3-1-6.16-4.44-6.16h-3.22v30Z"/><path class="fde0abfe-fc76-4405-9098-aa1e626ba31a" d="M154.05,87.32l-5.17-32h-4.33v32h-14.1V.94h17.32c14.44,0,19.15,6.78,19.15,19.15V36.14c0,6.71-1.38,11.82-5,15l7,36.14Zm-5.72-43.91c3.5,0,4.44-3.16,4.44-6.16V19c0-3-.94-6.16-4.44-6.16h-3.78V43.41Z"/><path class="fde0abfe-fc76-4405-9098-aa1e626ba31a" d="M175.36,70.22V18c0-11.82,4.72-18,19-18,14.43,0,19.15,6.22,19.15,18V70.22c0,11.83-4.72,18-19.15,18C180.08,88.26,175.36,82.05,175.36,70.22Zm23.43,1.11V16.93c0-2.44-.94-5-4.44-5-3.33,0-4.28,2.61-4.28,5v54.4c0,2.44,1,5,4.28,5C197.85,76.38,198.79,73.77,198.79,71.33Z"/><path class="fde0abfe-fc76-4405-9098-aa1e626ba31a" d="M219.44.94h14.21l5.16,73.22h.61L245.31.94h14.21l-8.66,86.38H227.38Z"/><path class="fde0abfe-fc76-4405-9098-aa1e626ba31a" d="M266.4.94h29.37V13.32H280.34V36.64h13.71V48.85H280.34V74.94h16.37V87.32H266.4Z"/><path class="a84d8eff-92c9-487a-a5a3-bfa38159da99" d="M332.41,53,319.2.94h14.54l5.44,30.31h.11L345,.94H359.5L346.4,53.18V87.32h-14Z"/><path class="a84d8eff-92c9-487a-a5a3-bfa38159da99" d="M362.94,70.22V18c0-11.82,4.72-18,19-18,14.44,0,19.16,6.22,19.16,18V70.22c0,11.83-4.72,18-19.16,18C367.66,88.26,362.94,82.05,362.94,70.22Zm23.42,1.11V16.93c0-2.44-.94-5-4.44-5-3.33,0-4.27,2.61-4.27,5v54.4c0,2.44.94,5,4.27,5C385.42,76.38,386.36,73.77,386.36,71.33Z"/><path class="a84d8eff-92c9-487a-a5a3-bfa38159da99" d="M410,70.22V.94h14.71V71.33c0,3,.94,5,4.27,5,3.5,0,4.44-2,4.44-5V.94h14.71V70.22c0,11.83-4.71,18-19.15,18C414.68,88.26,410,82.05,410,70.22Z"/><path class="a84d8eff-92c9-487a-a5a3-bfa38159da99" d="M481.68,87.32l-5.16-32h-4.33v32h-14.1V.94h17.32c14.43,0,19.15,6.78,19.15,19.15V36.14c0,6.71-1.39,11.82-5,15l7.05,36.14ZM476,43.41c3.5,0,4.44-3.16,4.44-6.16V19c0-3-.94-6.16-4.44-6.16h-3.77V43.41Z"/><path class="a84d8eff-92c9-487a-a5a3-bfa38159da99" d="M523,70.22V18c0-11.82,4.72-18,19-18,14.43,0,18,6.22,18,18V29.31h-13.6V16.93c0-2.44-.95-5-4.44-5s-4.28,2.61-4.28,5v54.4c0,2.44.94,5,4.28,5s4.44-2.61,4.44-5V50h-4.78V36.64H560V70.22c0,11.83-3.61,18-18,18C527.7,88.26,523,82.05,523,70.22Z"/><path class="a84d8eff-92c9-487a-a5a3-bfa38159da99" d="M589.82,70.33h-8.5l-1.22,17H565.89L573.83.94h23.48l7.94,86.38H591ZM589,58.12l-3.1-44h-.62l-3.1,44Z"/><path class="a84d8eff-92c9-487a-a5a3-bfa38159da99" d="M612.3.94H631l6.44,44.52h.28L645.05.94h17.71V87.32H650.21V34.64H650l-7.94,52.68h-8.66l-8.27-52.68H625V87.32H612.3Z"/><path class="a84d8eff-92c9-487a-a5a3-bfa38159da99" d="M673.31.94h29.36V13.32H687.24V36.64H701V48.85H687.24V74.94h16.38V87.32H673.31Z"/></g></g></svg>