<svg xmlns="http://www.w3.org/2000/svg" viewBox="0 0 147.97 107.27"><defs><style>.aab106ab-9f7d-4789-9328-cb6bd88b30cd{fill:none;stroke:#ff4800;stroke-miterlimit:10;stroke-width:2px;}.e2df45bc-5384-4e6a-a823-ff120d5f8d32{fill:#ff4800;}</style></defs><g id="a9cd06d9-2ed3-4009-b535-88f5226065ec" data-name="Ebene 2"><g id="b8aebf73-00c7-448d-8be1-9bd4c241cb01" data-name="Ebene 47"><rect class="aab106ab-9f7d-4789-9328-cb6bd88b30cd" x="75.37" y="-1.49" width="29.33" height="58.66" rx="3.35" transform="translate(18.22 88.86) rotate(-57.53)"/><path class="aab106ab-9f7d-4789-9328-cb6bd88b30cd" d="M60.75,3.64l6.36,4a3.83,3.83,0,0,1,.66.53L62.82,16a4.15,4.15,0,0,1-.76-.38l-6.36-4c-1.56-1-2.18-2.81-1.38-4.07l2.15-3.38C57.27,2.85,59.18,2.64,60.75,3.64Z"/><path class="aab106ab-9f7d-4789-9328-cb6bd88b30cd" d="M63.1,40.91c-10.37-10-12.61-16.48-5.71-27.31"/><path class="e2df45bc-5384-4e6a-a823-ff120d5f8d32" d="M104.5,25.87,80.81,11,77.5,8.87c-1.15-.72-2.2,1.09-1.06,1.81L100.13,25.6l3.31,2.08c1.15.72,2.2-1.09,1.06-1.81Z"/><line class="aab106ab-9f7d-4789-9328-cb6bd88b30cd" x1="114.31" y1="25.98" x2="99.01" y2="50.01"/><path class="aab106ab-9f7d-4789-9328-cb6bd88b30cd" d="M61.1,71.91Q142.54,70.64,145,60.13q1.29-5.4-18.22-13.22"/><path class="aab106ab-9f7d-4789-9328-cb6bd88b30cd" d="M4.14,91.07C6.93,88.49,24.82,69.66,30.39,66.7S60.71,47.49,60.86,50.63s-.65,5.59-2.08,7.16S40.27,70.68,38.29,73.33c-1,1.36-4.33,10.54-3.69,12.08.35.83,16.9-5.94,16.95-3.44a8.06,8.06,0,0,1-3.88,7.09c-3,2-9.83,3.71-12.07,5.35s-7.58,6.3-10,7-8.49.88-10.14,1.85a13.31,13.31,0,0,0-2.42,2,1.87,1.87,0,0,1-2.72-.05l-8.64-9.3a1.89,1.89,0,0,1,.09-2.67Z"/><path class="aab106ab-9f7d-4789-9328-cb6bd88b30cd" d="M31.46,66.11S50.87,44.05,51.7,47.31s-.63,7.13-1.75,7.8Z"/><path class="aab106ab-9f7d-4789-9328-cb6bd88b30cd" d="M90.09,77.88Q128.94,76,140,70.9"/><line class="aab106ab-9f7d-4789-9328-cb6bd88b30cd" x1="146.97" y1="48.27" x2="146.97" y2="12.27"/><line class="aab106ab-9f7d-4789-9328-cb6bd88b30cd" x1="140.97" y1="40.77" x2="132.97" y2="24.27"/><line class="aab106ab-9f7d-4789-9328-cb6bd88b30cd" x1="146.97" y1="77.27" x2="146.97" y2="107.27"/><line class="aab106ab-9f7d-4789-9328-cb6bd88b30cd" x1="140.97" y1="80.77" x2="126.97" y2="98.77"/><circle class="aab106ab-9f7d-4789-9328-cb6bd88b30cd" cx="15" cy="27.62" r="14"/><line class="aab106ab-9f7d-4789-9328-cb6bd88b30cd" x1="21.37" y1="21.25" x2="8.63" y2="34"/><line class="aab106ab-9f7d-4789-9328-cb6bd88b30cd" x1="8.63" y1="21.25" x2="21.37" y2="34"/></g></g></svg>