<svg height="464pt" viewBox="-4 0 464 464" width="464pt" xmlns="http://www.w3.org/2000/svg" fill="#ff4800"><path d="m424 377.480469v-33.472657c0-22.054687-17.945312-40-40-40h-72v16h72c13.230469 0 24 10.769532 24 24v33.472657c-9.289062 3.3125-16 12.113281-16 22.527343 0 13.230469 10.769531 24 24 24s24-10.769531 24-24c0-10.421874-6.710938-19.214843-16-22.527343zm-8 30.519531c-4.414062 0-8-3.585938-8-8s3.585938-8 8-8 8 3.585938 8 8-3.585938 8-8 8zm0 0"/><path d="m432 240c-10.414062 0-19.214844 6.710938-22.527344 16h-25.472656v16h25.472656c3.3125 9.289062 12.113282 16 22.527344 16 13.230469 0 24-10.769531 24-24s-10.769531-24-24-24zm0 32c-4.414062 0-8-3.585938-8-8s3.585938-8 8-8 8 3.585938 8 8-3.585938 8-8 8zm0 0"/><path d="m240 304h56v16h-56zm0 0"/><path d="m240 256h128v16h-128zm0 0"/><path d="m409.472656 192h-137.472656v16h137.472656c3.3125 9.289062 12.113282 16 22.527344 16 13.230469 0 24-10.769531 24-24s-10.769531-24-24-24c-10.414062 0-19.214844 6.710938-22.527344 16zm22.527344 0c4.414062 0 8 3.585938 8 8s-3.585938 8-8 8-8-3.585938-8-8 3.585938-8 8-8zm0 0"/><path d="m240 144h96v16h-96zm0 0"/><path d="m424 120v-33.472656c9.289062-3.3125 16-12.113282 16-22.527344 0-13.230469-10.769531-24-24-24s-24 10.769531-24 24c0 10.414062 6.710938 19.214844 16 22.527344v33.472656c0 13.230469-10.769531 24-24 24h-32v16h32c22.054688 0 40-17.945312 40-40zm-8-64c4.414062 0 8 3.585938 8 8s-3.585938 8-8 8-8-3.585938-8-8 3.585938-8 8-8zm0 0"/><path d="m240 192h16v16h-16zm0 0"/><path d="m168 0c-30.871094 0-56 25.128906-56 56 0 9.839844 2.585938 19.519531 7.488281 27.992188l-13.839843 8.015624c-6.3125-10.902343-9.648438-23.351562-9.648438-36.007812 0-4.167969.433594-8.230469 1.121094-12.207031-28.9375 9.734375-49.121094 37.09375-49.121094 68.207031 0 10.3125 2.199219 20.351562 6.535156 29.832031l3.296875 7.199219-7.167969 3.367188c-30.777343 14.480468-50.664062 45.722656-50.664062 79.601562 0 29.089844 14.664062 56.207031 38.488281 72.527344 14.558594-15.085938 34.9375-24.527344 57.511719-24.527344v16c-35.289062 0-64 28.710938-64 64s28.710938 64 64 64c3.398438 0 6.976562-.328125 10.929688-1.007812l6.46875-1.121094 2.355468 6.136718c8.253906 21.527344 29.253906 35.992188 52.246094 35.992188 30.871094 0 56-25.128906 56-56v-352c0-30.871094-25.128906-56-56-56zm-72 408c-26.472656 0-48-21.527344-48-48h16c0 17.648438 14.351562 32 32 32zm-13.65625-205.65625c-4.527344 4.527344-7.03125 10.550781-7.03125 16.96875 0 6.414062 2.496094 12.441406 7.03125 16.96875l-11.3125 11.3125c-7.550781-7.546875-11.71875-17.59375-11.71875-28.28125s4.167969-20.738281 11.71875-28.28125c7.542969-7.550781 17.59375-11.71875 28.28125-11.71875s20.734375 4.167969 28.28125 11.71875l-11.3125 11.3125c-9.066406-9.0625-24.875-9.0625-33.9375 0zm77.65625 109.65625c-13.230469 0-24 10.769531-24 24s10.769531 24 24 24v16c-22.054688 0-40-17.945312-40-40s17.945312-40 40-40zm0-104v-16c13.230469 0 24-10.769531 24-24s-10.769531-24-24-24v-16c22.054688 0 40 17.945312 40 40s-17.945312 40-40 40zm8 240v-16c13.230469 0 24-10.769531 24-24h16c0 22.054688-17.945312 40-40 40zm24-392c0-13.230469-10.769531-24-24-24s-24 10.769531-24 24h-16c0-22.054688 17.945312-40 40-40s40 17.945312 40 40zm0 0"/></svg>