<svg xmlns="http://www.w3.org/2000/svg" viewBox="0 0 146.72 108.33"><defs><style>.ae2a54e3-02c5-48e3-8b51-683f0fef77c4{fill:none;stroke:#ff4800;stroke-miterlimit:10;stroke-width:2px;}</style></defs><g id="ffb0fe98-0d37-46b1-ba30-c1318928cd4d" data-name="Ebene 2"><g id="e279607c-bc19-4c80-aeac-a72e1d3ee793" data-name="Ebene 46"><polygon class="ae2a54e3-02c5-48e3-8b51-683f0fef77c4" points="43.73 29.36 72.98 1.11 131.46 16.17 145.62 74.56 117.31 103.75 102.22 44.42 43.73 29.36"/><polygon class="ae2a54e3-02c5-48e3-8b51-683f0fef77c4" points="25.55 69.46 38.74 56.72 65.12 63.52 71.5 89.84 58.74 103.01 51.93 76.25 25.55 69.46"/><polygon class="ae2a54e3-02c5-48e3-8b51-683f0fef77c4" points="22.5 87.07 29.77 80.05 44.3 83.8 47.82 98.3 40.78 105.56 37.03 90.82 22.5 87.07"/><polyline class="ae2a54e3-02c5-48e3-8b51-683f0fef77c4" points="35.16 25.79 52.36 9.17 56.78 10.31"/><polyline class="ae2a54e3-02c5-48e3-8b51-683f0fef77c4" points="98.77 107.63 86.64 59.94 26.83 44.53"/><polyline class="ae2a54e3-02c5-48e3-8b51-683f0fef77c4" points="136.5 91.11 137.5 95.25 125.5 107.63"/><polyline class="ae2a54e3-02c5-48e3-8b51-683f0fef77c4" points="124.2 22.83 136.11 71.93 125.5 82.87"/><circle class="ae2a54e3-02c5-48e3-8b51-683f0fef77c4" cx="15" cy="28.22" r="14"/><line class="ae2a54e3-02c5-48e3-8b51-683f0fef77c4" x1="24.5" y1="27.98" x2="5.99" y2="27.98"/><line class="ae2a54e3-02c5-48e3-8b51-683f0fef77c4" x1="15.24" y1="18.72" x2="15.24" y2="37.24"/></g></g></svg>