<svg xmlns="http://www.w3.org/2000/svg" viewBox="0 0 181.5 181.5"><defs><style>.b5b1212a-6331-471d-8478-c441273486f9{fill:#ff4500;}</style></defs><g id="b5d8faf0-3491-44a7-a8f4-e6eb3a1bdc50" data-name="Ebene 2"><g id="aee20197-7682-4ae4-860b-545be7f070a2" data-name="reddit"><path class="b5b1212a-6331-471d-8478-c441273486f9" d="M69.62,108.93a9.09,9.09,0,1,1,9.09-9.09A9.12,9.12,0,0,1,69.62,108.93Z"/><path class="b5b1212a-6331-471d-8478-c441273486f9" d="M113.29,121.56a2.56,2.56,0,0,1-.05,3.59v-.36a34.83,34.83,0,0,1-22.42,7,34.81,34.81,0,0,1-22.42-7,2.46,2.46,0,0,1,.34-3.45,2.43,2.43,0,0,1,3.11,0A29.63,29.63,0,0,0,90.73,127a29.85,29.85,0,0,0,19-5.52A2.56,2.56,0,0,1,113.29,121.56Z"/><path class="b5b1212a-6331-471d-8478-c441273486f9" d="M120.71,100.16a9.09,9.09,0,0,1-8.71,9.43h-.45l.07-.34a9.09,9.09,0,1,1,9.09-9.09Z"/><path class="b5b1212a-6331-471d-8478-c441273486f9" d="M90.75,0A90.75,90.75,0,1,0,181.5,90.75,90.75,90.75,0,0,0,90.75,0Zm53.19,102.82a29.52,29.52,0,0,1,0,4c0,20.35-23.68,36.86-52.9,36.86s-52.89-16.54-52.89-36.86a29.52,29.52,0,0,1,0-4,13,13,0,0,1-3.57-2.39A13.25,13.25,0,0,1,52.72,81.12,65.1,65.1,0,0,1,88.11,70l6.7-31.49v0a2.8,2.8,0,0,1,3.36-2.14l22.24,4.44a9.07,9.07,0,1,1-1.19,5.55L99.8,42.19l-5.89,28.3a64.5,64.5,0,0,1,34.94,11.17,13.16,13.16,0,1,1,15.09,21.16Z"/></g></g></svg>