<?xml version="1.0" encoding="utf-8"?>
<!-- Generator: Adobe Illustrator 23.1.1, SVG Export Plug-In . SVG Version: 6.00 Build 0)  -->
<svg version="1.1" id="Layer_1" xmlns="http://www.w3.org/2000/svg" xmlns:xlink="http://www.w3.org/1999/xlink" x="0px" y="0px"
	 viewBox="0 0 1000 1000" style="enable-background:new 0 0 1000 1000;" xml:space="preserve">
<style type="text/css">
	.st0{fill:#F74300;}
	.st1{fill:#FFFFFF;}
</style>
<title></title>
<g>
	<path class="st0" d="M500,1000L500,1000C223.9,1000,0,776.1,0,500l0,0C0,223.9,223.9,0,500,0l0,0c276.1,0,500,223.9,500,500l0,0
		C1000,776.1,776.1,1000,500,1000z"/>
	<path id="Fill-3" class="st1" d="M614.4,599.4c-28.7,0-52.1-23.4-52.1-52.1c0-28.7,23.4-52.1,52.1-52.1s52.1,23.4,52.1,52.1
		C666.5,576,643.1,599.4,614.4,599.4 M623.6,684.9C588,720.4,519.9,723.2,500,723.2c-20,0-88.2-2.8-123.7-38.3
		c-5.3-5.3-5.3-13.8,0-19.1s13.8-5.3,19.1,0c22.4,22.4,70.3,30.4,104.6,30.4c34.2,0,82.2-8,104.6-30.4c5.3-5.3,13.8-5.3,19.1,0
		C628.8,671.1,628.8,679.6,623.6,684.9 M333.1,547.3c0-28.7,23.4-52.1,52.1-52.1s52.1,23.4,52.1,52.1s-23.4,52.1-52.1,52.1
		C356.6,599.4,333.1,576,333.1,547.3 M833.1,495.2c0-40.3-32.6-72.9-72.9-72.9c-19.7,0-37.5,7.8-50.6,20.5
		c-49.8-36-118.5-59.2-195-61.9l33.2-156.3l108.5,23.1c1.3,27.6,23.9,49.6,51.8,49.6c28.8,0,52.1-23.3,52.1-52.1
		c0-28.8-23.3-52.1-52.1-52.1c-20.5,0-38,11.9-46.5,29.1l-121.2-25.8c-3.4-0.7-6.9-0.1-9.8,1.8c-2.9,1.9-4.9,4.8-5.6,8.2
		l-36.4,171.5c-0.2,1,0,1.9,0,2.9c-77.9,2-147.9,25.3-198.5,61.8c-13.1-12.6-30.8-20.3-50.4-20.3c-40.3,0-72.9,32.7-72.9,72.9
		c0,29.6,17.7,55.1,43.1,66.5c-1.1,7.2-1.7,14.6-1.7,22.1c0,112.2,130.6,203.1,291.7,203.1S791.7,696,791.7,583.8
		c0-7.4-0.6-14.7-1.7-21.9C815.2,550.5,833.1,525,833.1,495.2"/>
</g>
</svg>
