<svg id="Ebene_1" data-name="Ebene 1" xmlns="http://www.w3.org/2000/svg" viewBox="0 0 90.06 90.05"><defs><style>.cls-1{fill:#fff;}</style></defs><title>stream-logo</title><path class="cls-1" d="M34.92,74.3l-8.86-3.42A10.95,10.95,0,1,0,30.78,59l8.74,3.38a6.37,6.37,0,1,1-4.6,11.89Z" transform="translate(-5.3 -4.97)"/><path class="cls-1" d="M68.67,48.8A13.55,13.55,0,1,0,55.13,35.24,13.57,13.57,0,0,0,68.67,48.8Zm0-23.1a9.55,9.55,0,1,1-9.55,9.54A9.56,9.56,0,0,1,68.69,25.7Z" transform="translate(-5.3 -4.97)"/><path class="cls-1" d="M83.57,5,17.16,5A11.81,11.81,0,0,0,5.35,16.77l0,32.4,17.16,6.64a18.43,18.43,0,0,1,13.66-6.39L46.48,35.67A22.09,22.09,0,1,1,83,52.45h0a22.06,22.06,0,0,1-14.4,5.33c-.58,0-1.15,0-1.72-.08l-12,9c0,.38,0,.77,0,1.15a18.44,18.44,0,1,1-36.88,0v-.1L5.32,62.83l0,20.33A11.8,11.8,0,0,0,17.09,95L83.51,95a11.8,11.8,0,0,0,11.8-11.8l.06-66.39A11.81,11.81,0,0,0,83.57,5Z" transform="translate(-5.3 -4.97)"/></svg>