<svg xmlns="http://www.w3.org/2000/svg" viewBox="0 0 47 47"><defs><style>.f72f4959-b8af-4b13-9aba-bf6a91cc1e0b{fill:none;stroke:#ff4800;stroke-miterlimit:10;stroke-width:2px;}.feb974c4-23fc-40a6-ae25-b2a4ff8af5a6{fill:#fbfbfb;}</style></defs><g id="ebd5a268-5f68-461d-9603-0a13cda71770" data-name="Ebene 2"><g id="e572b6f7-a48e-4389-9d28-e886c6d5db1e" data-name="Ebene 2"><circle class="f72f4959-b8af-4b13-9aba-bf6a91cc1e0b" cx="23.5" cy="23.5" r="22.5"/></g><g id="bc151cba-4d7c-4e12-be01-1e67412a6f9b" data-name="Ebene 7"><path class="feb974c4-23fc-40a6-ae25-b2a4ff8af5a6" d="M21.36,16.21v3.57H19v-4a2.44,2.44,0,0,1,2.76-2.76h2.94a2.44,2.44,0,0,1,2.77,2.76v6.27c0,1.05-.43,1.61-1.3,1.68a1.45,1.45,0,0,1,1.3,1.64v6.65a2.45,2.45,0,0,1-2.77,2.77H21.74A2.45,2.45,0,0,1,19,32.06V28.14h2.38v3.54a1.28,1.28,0,0,0,.21.89,1.35,1.35,0,0,0,.87.19H24a1.37,1.37,0,0,0,.88-.19,1.28,1.28,0,0,0,.21-.89V25.94a1.3,1.3,0,0,0-.21-.9,1.44,1.44,0,0,0-.88-.19H21.43v-2.1H24a1.37,1.37,0,0,0,.88-.19,1.28,1.28,0,0,0,.21-.89V16.21a1.3,1.3,0,0,0-.21-.9,1.44,1.44,0,0,0-.88-.19H22.44a1.42,1.42,0,0,0-.87.19A1.3,1.3,0,0,0,21.36,16.21Z"/></g></g></svg>