<svg xmlns="http://www.w3.org/2000/svg" viewBox="0 0 162.2 131.82"><defs><style>.bfea462f-77ac-4fff-b12b-c251bc04ab2f{fill:#1da1f2;}</style></defs><g id="bfb96f2f-7607-4f3a-85d4-1fcecb2bcd66" data-name="Ebene 2"><g id="a8129281-dcb9-4bae-84c3-6ba533f378a1" data-name="Ebene 2"><path class="bfea462f-77ac-4fff-b12b-c251bc04ab2f" d="M162.2,15.6a66.76,66.76,0,0,1-19.11,5.24A33.4,33.4,0,0,0,157.72,2.43a66.35,66.35,0,0,1-21.13,8.07,33.31,33.31,0,0,0-56.7,30.36A94.48,94.48,0,0,1,11.3,6.09,33.33,33.33,0,0,0,21.6,50.52,33.24,33.24,0,0,1,6.52,46.36v.42A33.29,33.29,0,0,0,33.22,79.4a33.52,33.52,0,0,1-15,.58,33.32,33.32,0,0,0,31.08,23.11A66.7,66.7,0,0,1,7.94,117.34,65.11,65.11,0,0,1,0,116.86a94.11,94.11,0,0,0,51,15c61.2,0,94.67-50.7,94.67-94.67,0-1.45,0-2.88-.1-4.31A67.6,67.6,0,0,0,162.2,15.6Z"/></g></g></svg>