<svg xmlns="http://www.w3.org/2000/svg" viewBox="0 0 47 47"><defs><style>.ee0532e8-b159-4586-8df1-4b9c5793d578{fill:none;stroke:#ff4800;stroke-miterlimit:10;stroke-width:2px;}.f510bd4f-7b96-4279-a725-51bff8a2d01b{fill:#fbfbfb;}</style></defs><g id="fa6c5262-ab7e-4d63-a1d4-cd29a4f776b5" data-name="Ebene 2"><g id="aa447afd-37d7-49c0-8780-9280fdc64530" data-name="Ebene 2"><circle class="ee0532e8-b159-4586-8df1-4b9c5793d578" cx="23.5" cy="23.5" r="22.5"/></g><g id="b0532d1f-ffaf-4079-8fa2-856622a597e2" data-name="Ebene 6"><path class="f510bd4f-7b96-4279-a725-51bff8a2d01b" d="M21.65,16.21v3.85H19.27V15.82A2.44,2.44,0,0,1,22,13.06h2.7a2.44,2.44,0,0,1,2.76,2.76v1.93a11.45,11.45,0,0,1-.91,4.55L21.79,32.76h5.88v2.07H19.3v-2l5-10.89a10.81,10.81,0,0,0,.81-4.3v-1.4a1.37,1.37,0,0,0-.2-.9,1.39,1.39,0,0,0-.89-.19H22.73a1.41,1.41,0,0,0-.89.19A1.38,1.38,0,0,0,21.65,16.21Z"/></g></g></svg>