<svg xmlns="http://www.w3.org/2000/svg" viewBox="0 0 102.5 105.74"><defs><style>.ac471670-fc7f-4779-a5a2-1289d6af6077{fill:none;stroke:#ff4800;stroke-miterlimit:10;stroke-width:2px;}</style></defs><g id="e0cb8aa8-e498-4b60-bc62-c3787fc83a40" data-name="Ebene 2"><g id="e1476c54-552f-4261-8db5-7322c20d7880" data-name="Ebene 9"><path class="ac471670-fc7f-4779-a5a2-1289d6af6077" d="M68.34,9.76H98a3.5,3.5,0,0,1,3.5,3.5v70a3.5,3.5,0,0,1-3.5,3.5H4.5A3.5,3.5,0,0,1,1,83.26v-70a3.5,3.5,0,0,1,3.5-3.5H32.34"/><rect class="ac471670-fc7f-4779-a5a2-1289d6af6077" x="44.9" y="86.73" width="11.71" height="11.84"/><path class="ac471670-fc7f-4779-a5a2-1289d6af6077" d="M36.33,99H65.85A5.18,5.18,0,0,1,71,104.14v.61a0,0,0,0,1,0,0H31.39a0,0,0,0,1,0,0v-.85A4.94,4.94,0,0,1,36.33,99Z"/><line class="ac471670-fc7f-4779-a5a2-1289d6af6077" x1="1.59" y1="76.18" x2="101.57" y2="76.18"/><line class="ac471670-fc7f-4779-a5a2-1289d6af6077" x1="18.06" y1="81.29" x2="21.85" y2="81.29"/><line class="ac471670-fc7f-4779-a5a2-1289d6af6077" x1="7.53" y1="81.29" x2="16.17" y2="81.29"/><polyline class="ac471670-fc7f-4779-a5a2-1289d6af6077" points="81.96 51.19 81.96 67.68 19.46 67.68 19.46 51.19"/><polygon class="ac471670-fc7f-4779-a5a2-1289d6af6077" points="76.84 26.11 64.84 26.11 64.84 59.74 35.84 59.74 35.84 26.11 23.84 26.11 50.34 1.37 76.84 26.11"/></g></g></svg>