<svg xmlns="http://www.w3.org/2000/svg" viewBox="0 0 160.07 120.6"><defs><style>.e61eb461-8db6-407e-ad8d-937c93f61461{fill:none;stroke:#ff4800;stroke-miterlimit:10;stroke-width:2px;}.e740ff4c-eb0d-48ee-a010-9ce4a265e5f4{fill:#fbfbfb;}</style></defs><g id="e2bc4bc9-8dae-40b5-b58a-bc55f31f883a" data-name="Ebene 2"><g id="b52f250d-64e5-4448-ac3a-7eb1556c7cd3" data-name="Ebene 9"><path class="e61eb461-8db6-407e-ad8d-937c93f61461" d="M125.91,24.61h29.66a3.5,3.5,0,0,1,3.5,3.5v70a3.49,3.49,0,0,1-3.5,3.5H62.07a3.5,3.5,0,0,1-3.5-3.5v-70a3.5,3.5,0,0,1,3.5-3.5H89.91"/><rect class="e61eb461-8db6-407e-ad8d-937c93f61461" x="102.48" y="101.58" width="11.71" height="11.84"/><path class="e61eb461-8db6-407e-ad8d-937c93f61461" d="M93.91,113.81h29.52A5.18,5.18,0,0,1,128.6,119v.61a0,0,0,0,1,0,0H89a0,0,0,0,1,0,0v-.85A4.94,4.94,0,0,1,93.91,113.81Z"/><line class="e61eb461-8db6-407e-ad8d-937c93f61461" x1="59.16" y1="91.03" x2="159.14" y2="91.03"/><line class="e61eb461-8db6-407e-ad8d-937c93f61461" x1="75.63" y1="96.15" x2="79.42" y2="96.15"/><line class="e61eb461-8db6-407e-ad8d-937c93f61461" x1="65.1" y1="96.15" x2="73.74" y2="96.15"/><polyline class="e61eb461-8db6-407e-ad8d-937c93f61461" points="139.53 66.04 139.53 82.54 77.03 82.54 77.03 66.04"/><polygon class="e61eb461-8db6-407e-ad8d-937c93f61461" points="134.41 40.96 122.41 40.96 122.41 74.59 93.41 74.59 93.41 40.96 81.41 40.96 107.91 16.22 134.41 40.96"/></g><g id="a9212997-cabd-480c-bd88-5ad5b2336305" data-name="Ebene 2"><circle class="e61eb461-8db6-407e-ad8d-937c93f61461" cx="23.5" cy="23.5" r="22.5"/></g><g id="bedc1884-f0e1-46ee-b1d9-285c2ea5b3b2" data-name="Ebene 6"><path class="e740ff4c-eb0d-48ee-a010-9ce4a265e5f4" d="M21.65,16.21v3.85H19.27V15.82A2.44,2.44,0,0,1,22,13.06h2.7a2.44,2.44,0,0,1,2.76,2.76v1.93a11.45,11.45,0,0,1-.91,4.55L21.79,32.76h5.88v2.07H19.3v-2l5-10.89a10.81,10.81,0,0,0,.81-4.3v-1.4a1.37,1.37,0,0,0-.2-.9,1.39,1.39,0,0,0-.89-.19H22.73a1.41,1.41,0,0,0-.89.19A1.38,1.38,0,0,0,21.65,16.21Z"/></g></g></svg>